<svg id="Layer_1" data-name="Layer 1" xmlns="http://www.w3.org/2000/svg" viewBox="0 0 1170.16 193.57"><defs><style>.cls-1{fill:#114e81;}</style></defs><g id="wordmark_color"><path class="cls-1" d="M236.83,131.44h.39q8.17,0,14.79,6.67a22.64,22.64,0,0,1,3.64,5.28c-2.58,1.33-3.91,2-4,2a22.68,22.68,0,0,0-2.19-3.35Q244.08,136,237.12,136h-.19q-7.29,0-12.67,6.51a20.34,20.34,0,0,0-4.19,12.4v.33A20,20,0,0,0,225.52,169a15.93,15.93,0,0,0,11.57,5.06q7.11,0,12.53-6.28a26.56,26.56,0,0,0,2.1-3.29l4,2.06a22.44,22.44,0,0,1-3.9,5.61A20.54,20.54,0,0,1,237,178.61q-8.86,0-15.63-7.41a24.93,24.93,0,0,1-5.77-16v-.33a24.38,24.38,0,0,1,6.77-17Q228.81,131.43,236.83,131.44Zm38.32,16.33H276a14.2,14.2,0,0,1,9.41,3.84,16.07,16.07,0,0,1-.26,23.65,14.4,14.4,0,0,1-19.65-.48,15.78,15.78,0,0,1-4.77-11.28v-.39a15.69,15.69,0,0,1,4.73-11.21A14.26,14.26,0,0,1,275.15,147.77Zm-9.93,15.54v.16a11.21,11.21,0,0,0,3.42,8.05,10,10,0,0,0,6.92,2.87q4.88,0,8.32-4.45a12,12,0,0,0,2.06-6.63,11.27,11.27,0,0,0-3.67-8.41,9.74,9.74,0,0,0-6.51-2.62h-.49a10,10,0,0,0-7.15,3.32A11.55,11.55,0,0,0,265.22,163.31ZM311.49,148H312q7.15,0,10.73,4.41,3.56-4.41,10.61-4.41h.9q8.67,0,11.92,6.32a11,11,0,0,1,1,4.64v19.56l-.06.09h-4.35l-.1-.09V159q0-3.87-3.87-5.74a11.61,11.61,0,0,0-4.38-.77h-1.09q-6.06,0-7.87,4.09a7.81,7.81,0,0,0-.48,3v18.92l-.1.09h-4.35l-.06-.09V159.25q0-4.74-4.87-6.32a15,15,0,0,0-4.41-.42q-4,0-6,1.68-2.41,1.58-2.42,5.31v19l-.09.09h-4.32l-.1-.09v-30l.1-.1h4.32l.09.1v3A11.86,11.86,0,0,1,311.49,148Zm57.37-.29q6.63,0,11.37,5.86a16,16,0,0,1,3.13,9V163c0,1-.07,1.48-.2,1.48H358.7a11.43,11.43,0,0,0,1.29,4.35,10.49,10.49,0,0,0,5.58,5,10.25,10.25,0,0,0,3.19.58,9.73,9.73,0,0,0,7.64-3.83,11.7,11.7,0,0,0,1.48-2.49h.06c1.74.69,3.11,1.27,4.1,1.75a15.14,15.14,0,0,1-3.16,4.73,14.07,14.07,0,0,1-10.09,4.35q-6.74,0-11.5-5.89a16.31,16.31,0,0,1-3.13-9.51v-.29a15.84,15.84,0,0,1,4.61-11.28A14,14,0,0,1,368.86,147.71ZM359.16,160h19.27a10.9,10.9,0,0,0-4.58-6.22,9.29,9.29,0,0,0-5.12-1.52q-4.71,0-8,4.39A11.38,11.38,0,0,0,359.16,160Zm34,12.4a3.13,3.13,0,0,1,2.61,1.42,4.26,4.26,0,0,1,.58,2.35c0,2.65-1.57,5.36-4.7,8.16a11.46,11.46,0,0,1-1.68,1.35L388.64,184c2.17-2,3.26-3.81,3.26-5.38a3.1,3.1,0,0,1-1.68-1.58,2.73,2.73,0,0,1-.38-1.45,3.26,3.26,0,0,1,3.28-3.19Zm30.71-40.95h4.45l0,0V174.1h20.21v4.51H423.83l0,0V131.47ZM466,147.71q6.65,0,11.38,5.86a16.08,16.08,0,0,1,3.12,9V163c0,1-.06,1.48-.19,1.48H455.8a11.43,11.43,0,0,0,1.29,4.35,10.5,10.5,0,0,0,5.57,5,10.3,10.3,0,0,0,3.19.58,9.71,9.71,0,0,0,7.64-3.83,11.29,11.29,0,0,0,1.48-2.49H475c1.74.69,3.1,1.27,4.09,1.75a14.79,14.79,0,0,1-3.16,4.73,14,14,0,0,1-10.08,4.35q-6.74,0-11.51-5.89a16.37,16.37,0,0,1-3.12-9.51v-.29a15.83,15.83,0,0,1,4.6-11.28A14,14,0,0,1,466,147.71ZM456.25,160h19.27a10.89,10.89,0,0,0-4.57-6.22,9.3,9.3,0,0,0-5.13-1.52q-4.71,0-8,4.39A11.15,11.15,0,0,0,456.25,160Zm33-28.55h4.48l0,0V148H502l0,0v4.48l0,0h-8.31v17.69a4.57,4.57,0,0,0,.68,2.45,3.53,3.53,0,0,0,1.83,1.26,3.06,3.06,0,0,0,.91.16h.19a10.11,10.11,0,0,0,3.35-.84l.39-.19c1.09,2.41,1.7,3.78,1.83,4.13a14.56,14.56,0,0,1-1.83.74,13.28,13.28,0,0,1-3.55.67H497a7.74,7.74,0,0,1-3.61-1,7.49,7.49,0,0,1-3.54-4,10.55,10.55,0,0,1-.61-3.65v-17.4h-5.06l0,0V148l0,0h5.06Zm19.95,11.72V130.28h4.51v12.88Zm24.36,4.36H534a13.14,13.14,0,0,1,6.25,1.57,11.84,11.84,0,0,1,2.06,1.39,11.72,11.72,0,0,1,1.58,1.61,3.51,3.51,0,0,1,.49.74q-2.94,1.68-3.87,2.29h0a6.5,6.5,0,0,0-1.74-1.67,9.73,9.73,0,0,0-10.51.25,3.76,3.76,0,0,0-1.45,2.84,2,2,0,0,0,.93,1.77,3.66,3.66,0,0,0,1,.61,22.66,22.66,0,0,0,4.84,1.55l4.09.81a12.65,12.65,0,0,1,2.64.9,11.61,11.61,0,0,1,2,1.19,11.28,11.28,0,0,1,1.19,1.13,7.52,7.52,0,0,1,1.93,5v.19a8.37,8.37,0,0,1-2.09,5.42,10.32,10.32,0,0,1-1.32,1.25,13.74,13.74,0,0,1-1.87,1.17,14.9,14.9,0,0,1-6.35,1.45h-.42a14.47,14.47,0,0,1-6.86-1.74,12.71,12.71,0,0,1-4.9-4.94s.64-.39,1.87-1.06l2.06-1.13a8.42,8.42,0,0,0,4.32,3.71,10.85,10.85,0,0,0,3.74.64,9.9,9.9,0,0,0,5.09-1.32,5.29,5.29,0,0,0,1.16-.9,4,4,0,0,0,1.06-2.64q0-2.13-2.67-3.39a12.18,12.18,0,0,0-1.87-.58,49.72,49.72,0,0,1-8.09-2q-6-2.19-6-7.06v-.1a8,8,0,0,1,2.22-5.41,8.59,8.59,0,0,1,1.48-1.29,11.15,11.15,0,0,1,3.36-1.61A14.41,14.41,0,0,1,533.53,147.52Zm35.83-16.08h4.45l0,0v47.11l0,0h-4.45l0,0V131.47Zm26.23,16.27q6.64,0,11.38,5.86a16.08,16.08,0,0,1,3.12,9V163c0,1-.06,1.48-.19,1.48H585.44a11.43,11.43,0,0,0,1.29,4.35,10.49,10.49,0,0,0,5.58,5,10.25,10.25,0,0,0,3.19.58,9.69,9.69,0,0,0,7.63-3.83,11.41,11.41,0,0,0,1.49-2.49h.06c1.74.69,3.1,1.27,4.09,1.75a14.79,14.79,0,0,1-3.16,4.73,14,14,0,0,1-10.08,4.35q-6.74,0-11.51-5.89a16.37,16.37,0,0,1-3.12-9.51v-.29a15.79,15.79,0,0,1,4.61-11.28A14,14,0,0,1,595.59,147.71ZM585.89,160h19.27a10.84,10.84,0,0,0-4.57-6.22,9.3,9.3,0,0,0-5.13-1.52q-4.69,0-8,4.39A11.4,11.4,0,0,0,585.89,160Zm45-12.31A11.86,11.86,0,0,1,641,152.9l.1.19h0v-5l.06-.09h4.35l.1.09v30.46l-.1.09h-4.35l-.06-.09v-5h0q-3.48,5.35-10.51,5.35v0l-.06,0a14.58,14.58,0,0,1-11-5,15.83,15.83,0,0,1-3.93-10.38v-.39A15.64,15.64,0,0,1,620,152.28,14.82,14.82,0,0,1,630.91,147.68Zm-10.73,15.5v.16a11.05,11.05,0,0,0,4.32,8.92,9.57,9.57,0,0,0,6,2.1q7,0,9.67-6.87a11.92,11.92,0,0,0,.71-4v-.71a11.72,11.72,0,0,0-1.77-5.86,9.25,9.25,0,0,0-8.09-4.68q-6.82,0-9.93,6.45A11.83,11.83,0,0,0,620.18,163.18Zm48.11-15.41a11.53,11.53,0,0,1,6,1.52l-1,4.8h0a10.65,10.65,0,0,0-5.29-1.68,7.63,7.63,0,0,0-7.54,5,6.48,6.48,0,0,0-.48,2.45v18.69l-.1.09h-4.32l-.09-.09v-30l.09-.09h4.32l.1.09v2.61h0a7.54,7.54,0,0,1,4.16-2.77A16.8,16.8,0,0,1,668.29,147.77Zm25.27.23h.55q9,0,12.18,6.93a11.87,11.87,0,0,1,.8,4.32v19.27l-.09.09h-4.35l-.07-.09V159.25q0-4.74-4.87-6.32a15,15,0,0,0-4.41-.42c-2.69,0-4.69.56-6,1.68q-2.41,1.58-2.41,5.31v19l-.1.09h-4.32l-.09-.09v-30l.09-.1h4.32l.1.1v3A11.83,11.83,0,0,1,693.56,148Zm40.83-16.56h4.48l0,0V148h8.31l0,0v4.48l0,0H738.9v17.69a4.57,4.57,0,0,0,.68,2.45,3.53,3.53,0,0,0,1.83,1.26,3.06,3.06,0,0,0,.9.16h.2a10.11,10.11,0,0,0,3.35-.84l.39-.19c1.09,2.41,1.7,3.78,1.83,4.13a14.56,14.56,0,0,1-1.83.74,13.28,13.28,0,0,1-3.55.67h-.55a7.74,7.74,0,0,1-3.61-1,7.45,7.45,0,0,1-3.54-4,10.55,10.55,0,0,1-.61-3.65v-17.4h-5.06l0,0V148l0,0h5.06Zm33.12,16.33h.84a14.2,14.2,0,0,1,9.41,3.84,16.07,16.07,0,0,1-.26,23.65,14.4,14.4,0,0,1-19.65-.48,15.78,15.78,0,0,1-4.77-11.28v-.39a15.66,15.66,0,0,1,4.74-11.21A14.22,14.22,0,0,1,767.51,147.77Zm-9.92,15.54v.16a11.21,11.21,0,0,0,3.42,8.05,10,10,0,0,0,6.92,2.87q4.88,0,8.32-4.45a12,12,0,0,0,2.06-6.63,11.27,11.27,0,0,0-3.67-8.41,9.74,9.74,0,0,0-6.51-2.62h-.49a10,10,0,0,0-7.15,3.32A11.55,11.55,0,0,0,757.59,163.31Zm44-15.54a12.52,12.52,0,0,1,7.19,2.23,6.56,6.56,0,0,1,1.09-1,6.11,6.11,0,0,1,2.16-1,6.25,6.25,0,0,1,1.61-.23h1l0,0v4.44l0,0h-.8a2,2,0,0,0-1.55.59,1,1,0,0,0-.26.58,9.79,9.79,0,0,1,1,2.19,11.22,11.22,0,0,1,.58,3.54,11,11,0,0,1-3.16,7.73,11.73,11.73,0,0,1-2,1.62,12.15,12.15,0,0,1-2.16,1.16,12.59,12.59,0,0,1-4.64.9h-.19a12.68,12.68,0,0,1-5.39-1.23,2.51,2.51,0,0,0-.61,1.58c0,.52.16.84.49,1,.85.6,2.83.9,5.92.9l2.26,0q6.29,0,9.73,2.93a11.82,11.82,0,0,1,1.26,1.36,8.41,8.41,0,0,1,1.58,4.86,8.92,8.92,0,0,1-1.68,5.06,10,10,0,0,1-1.48,1.68,13.05,13.05,0,0,1-3.83,2.48,24.52,24.52,0,0,1-2.58.87,18.75,18.75,0,0,1-3.9.48h-1.1a18.82,18.82,0,0,1-5.89-1,16.25,16.25,0,0,1-2.71-1.29,13.83,13.83,0,0,1-1.81-1.35,14.83,14.83,0,0,1-1.25-1.38,8.63,8.63,0,0,1-1.77-5v-.36a9.21,9.21,0,0,1,2.09-5.44,8.52,8.52,0,0,1,1.58-1.52l.19-.16a5.3,5.3,0,0,1-1.61-4v-.1a6.76,6.76,0,0,1,1.42-4.13.18.18,0,0,0,.06-.13A10.93,10.93,0,0,1,791.3,165a11,11,0,0,1,1.32-13.31,11.41,11.41,0,0,1,1.45-1.35,13.67,13.67,0,0,1,2.09-1.29A12.72,12.72,0,0,1,801.64,147.77Zm-8.31,34.48v.07a4.79,4.79,0,0,0,2.25,3.77,12.69,12.69,0,0,0,7.22,1.9,12.25,12.25,0,0,0,6.86-1.87,6.74,6.74,0,0,0,1.26-1.09,4.66,4.66,0,0,0,1.39-3.07v-.09a3.72,3.72,0,0,0-1.26-2.71,6.56,6.56,0,0,0-2.55-1.35,15,15,0,0,0-3.83-.52h-3.06a27.48,27.48,0,0,1-4.29-.29,14.51,14.51,0,0,0-2.06,1.61A5.61,5.61,0,0,0,793.33,182.25Zm.83-23.2v.29a6.46,6.46,0,0,0,1.49,4,7.61,7.61,0,0,0,6.05,2.77,7.82,7.82,0,0,0,5.23-2,6.49,6.49,0,0,0,.22-9.63,7.83,7.83,0,0,0-5.41-2.2h-.16a7.91,7.91,0,0,0-4.1,1.17,7.45,7.45,0,0,0-1.48,1.22,6.75,6.75,0,0,0-1.29,1.93A6.23,6.23,0,0,0,794.16,159.05Zm43.25-11.34q6.65,0,11.38,5.86a16.08,16.08,0,0,1,3.12,9V163c0,1-.06,1.48-.19,1.48H827.26a11.43,11.43,0,0,0,1.29,4.35,10.5,10.5,0,0,0,5.57,5,10.35,10.35,0,0,0,3.19.58,9.71,9.71,0,0,0,7.64-3.83,11.29,11.29,0,0,0,1.48-2.49h.07c1.74.69,3.1,1.27,4.09,1.75a14.79,14.79,0,0,1-3.16,4.73,14,14,0,0,1-10.08,4.35q-6.74,0-11.51-5.89a16.37,16.37,0,0,1-3.12-9.51v-.29a15.83,15.83,0,0,1,4.6-11.28A14,14,0,0,1,837.41,147.71ZM827.71,160H847a10.89,10.89,0,0,0-4.57-6.22,9.3,9.3,0,0,0-5.13-1.52q-4.69,0-8,4.39A11.15,11.15,0,0,0,827.71,160Zm33-28.55h4.48l0,0V148h8.31l0,0v4.48l0,0h-8.31v17.69a4.57,4.57,0,0,0,.68,2.45,3.53,3.53,0,0,0,1.83,1.26,3.06,3.06,0,0,0,.9.16h.2a10.11,10.11,0,0,0,3.35-.84l.39-.19c1.09,2.41,1.7,3.78,1.83,4.13a14.56,14.56,0,0,1-1.83.74,13.28,13.28,0,0,1-3.55.67h-.55a7.74,7.74,0,0,1-3.61-1,7.45,7.45,0,0,1-3.54-4,10.55,10.55,0,0,1-.61-3.65v-17.4h-5.06l0,0V148l0,0h5.06Zm20.82,0h4.31l.1.09v19.95a12.28,12.28,0,0,1,8.89-3.55q9.42,0,12.48,6.8a11.43,11.43,0,0,1,.87,4.48v19.31l-.07.09h-4.35l-.1-.09V159.25q0-5.33-5.89-6.58a11.22,11.22,0,0,0-2.42-.19H894q-5.41,0-7.54,3.77a9,9,0,0,0-.58,3.29v19l-.1.09H881.5l-.1-.09v-47Zm48.27,16.27c4.42,0,8.22,1.95,11.37,5.86a16,16,0,0,1,3.13,9V163c0,1-.06,1.48-.19,1.48H919.62a11.43,11.43,0,0,0,1.29,4.35,10.47,10.47,0,0,0,5.57,5,10.3,10.3,0,0,0,3.19.58,9.73,9.73,0,0,0,7.64-3.83,11.29,11.29,0,0,0,1.48-2.49h.07c1.74.69,3.1,1.27,4.09,1.75a15,15,0,0,1-3.16,4.73,14.05,14.05,0,0,1-10.09,4.35q-6.74,0-11.5-5.89a16.38,16.38,0,0,1-3.13-9.51v-.29a15.84,15.84,0,0,1,4.61-11.28A14,14,0,0,1,929.77,147.71ZM920.07,160h19.27a10.86,10.86,0,0,0-4.58-6.22,9.27,9.27,0,0,0-5.12-1.52q-4.71,0-8,4.39A11.15,11.15,0,0,0,920.07,160Zm44.6-12.22a11.47,11.47,0,0,1,6,1.52l-1,4.8h0a10.59,10.59,0,0,0-5.28-1.68,7.62,7.62,0,0,0-7.54,5,6.3,6.3,0,0,0-.49,2.45v18.69l-.09.09h-4.32l-.1-.09v-30l.1-.09h4.32l.09.09v2.61h0a7.55,7.55,0,0,1,4.15-2.77A16.94,16.94,0,0,1,964.67,147.77Zm35.25,24.4h.07a3.25,3.25,0,0,1,3.19,3.09v.19a3.26,3.26,0,0,1-3.26,3.16,3.24,3.24,0,0,1-2.22-.9,3.2,3.2,0,0,1-1-2.19v-.26a3.26,3.26,0,0,1,3.19-3.09Zm-2.83-40.73h5.73l0,0-.65,36.67H997.7l-.64-36.67Z"/><path class="cls-1" d="M47.21,99.53a52.27,52.27,0,0,1-18.75-3.3A43.56,43.56,0,0,1,3.55,72.5,45,45,0,0,1,0,54.44,45.1,45.1,0,0,1,3.55,36.37a43.21,43.21,0,0,1,10-14.32,44.64,44.64,0,0,1,15.07-9.41,52.2,52.2,0,0,1,18.75-3.3,51.93,51.93,0,0,1,20.55,3.93A39.82,39.82,0,0,1,83.34,24.79l-13.08,12A29.66,29.66,0,0,0,60.35,29a27.83,27.83,0,0,0-12-2.61,29.78,29.78,0,0,0-11.21,2.05A26,26,0,0,0,22.48,43.1a30.16,30.16,0,0,0-2.05,11.34,30.07,30.07,0,0,0,2.05,11.33A25.92,25.92,0,0,0,37.12,80.41a29.78,29.78,0,0,0,11.21,2,27.31,27.31,0,0,0,12-2.67A30.38,30.38,0,0,0,70.26,72L83.34,84A40.36,40.36,0,0,1,67.89,95.54,51.57,51.57,0,0,1,47.21,99.53Zm79.1-.5a42.74,42.74,0,0,1-20-4.48,32.68,32.68,0,0,1-18.07-30,34.92,34.92,0,0,1,4.55-17.82,32,32,0,0,1,12.71-12.27A38,38,0,0,1,123.82,30a36.92,36.92,0,0,1,17.75,4.24,31.83,31.83,0,0,1,12.52,12q4.6,7.74,4.61,18.57c0,.74,0,1.6-.13,2.55s-.16,1.85-.24,2.68H103.89V58.67h44.22L140.51,62a17.8,17.8,0,0,0-2-9.1,15.4,15.4,0,0,0-5.86-6,17,17,0,0,0-8.72-2.18,17.36,17.36,0,0,0-8.78,2.18,15.22,15.22,0,0,0-5.91,6.1,19.18,19.18,0,0,0-2.12,9.28v3A18.4,18.4,0,0,0,109.62,75a16.39,16.39,0,0,0,6.85,6.29,23.08,23.08,0,0,0,10.46,2.18,24.79,24.79,0,0,0,9.28-1.62A23,23,0,0,0,143.63,77L154,88.2a30.29,30.29,0,0,1-11.59,8A42.84,42.84,0,0,1,126.31,99Zm45.34-1V31h18.57V50.08l-2.62-5.61a21.53,21.53,0,0,1,9.59-10.77Q203.79,30,213.26,30V48.08c-.75-.16-1.48-.29-2.18-.37a18.28,18.28,0,0,0-2.05-.12q-8.24,0-13.08,4.6T191.09,66.4V98Zm47.59-50.58v-15H265.7v15ZM254.62,99q-11.84,0-18.44-6t-6.6-18V16.19h19.56V74.62a9.35,9.35,0,0,0,2.18,6.6,7.63,7.63,0,0,0,5.91,2.37,12.65,12.65,0,0,0,8-2.5l5.1,13.71a19.84,19.84,0,0,1-7,3.17A34.8,34.8,0,0,1,254.62,99Zm23-28.27V55.18h35.26V70.76Zm72,11.08h47.46V98H329.61V10.84H395.5V27H349.66Zm-1.49-36h42V61.66h-42ZM440.1,99A34,34,0,0,1,423,94.73a31.12,31.12,0,0,1-12-12,36.42,36.42,0,0,1-4.36-18.18,36.46,36.46,0,0,1,4.36-18.19,31.12,31.12,0,0,1,12-12A34,34,0,0,1,440.1,30a28.7,28.7,0,0,1,14.82,3.74,24.51,24.51,0,0,1,9.84,11.33q3.5,7.6,3.49,19.44T464.89,84a23.59,23.59,0,0,1-9.66,11.4A29.49,29.49,0,0,1,440.1,99Zm3.24-15.94a17.47,17.47,0,0,0,8.72-2.18,15.78,15.78,0,0,0,6.16-6.42,20.47,20.47,0,0,0,2.31-10,20.05,20.05,0,0,0-2.31-10,16,16,0,0,0-6.16-6.29,17.47,17.47,0,0,0-8.72-2.18,17.21,17.21,0,0,0-8.6,2.18,16.1,16.1,0,0,0-6.17,6.29,20.16,20.16,0,0,0-2.3,10,20.58,20.58,0,0,0,2.3,10,15.87,15.87,0,0,0,6.17,6.42A17.21,17.21,0,0,0,443.34,83.09ZM461,98V84.33l.37-19.93-1.25-19.8v-39h19.44V98Zm61.65,0,38.75-87.2h19.93L620.47,98H599.29l-32-77h8.1l-32,77Zm19.56-18.69L547.35,64h45.09l5.24,15.32ZM660,99a40.72,40.72,0,0,1-19.25-4.42,33.07,33.07,0,0,1-18-30.08,33.06,33.06,0,0,1,4.8-17.82,34.09,34.09,0,0,1,13.2-12.2A40.28,40.28,0,0,1,660,30a37.4,37.4,0,0,1,18.5,4.42A25.71,25.71,0,0,1,689.86,47l-15,8.22a18.07,18.07,0,0,0-6.6-6.91,17,17,0,0,0-8.48-2.18A18.18,18.18,0,0,0,651,48.27a16.13,16.13,0,0,0-6.35,6.29,19.64,19.64,0,0,0-2.37,10,20,20,0,0,0,2.37,10A16,16,0,0,0,651,80.91a18.18,18.18,0,0,0,8.84,2.18,17,17,0,0,0,8.48-2.18,17.86,17.86,0,0,0,6.6-7l15,8.22a26.11,26.11,0,0,1-11.4,12.46A36.89,36.89,0,0,1,660,99Zm61.91,0a30.6,30.6,0,0,1-13.33-2.68,20.87,20.87,0,0,1-8.66-7.28,18.34,18.34,0,0,1-3-10.34,18.81,18.81,0,0,1,2.93-10.4q2.93-4.55,9.28-7t16.69-2.49h17.69V70h-15.7q-6.86,0-9.4,2.24a7.16,7.16,0,0,0-2.56,5.61,7,7,0,0,0,2.93,5.91A12.91,12.91,0,0,0,726.6,86a17.6,17.6,0,0,0,8.91-2.24,12.25,12.25,0,0,0,5.54-6.85L744,86a17.62,17.62,0,0,1-7.72,9.66Q730.71,99,721.87,99Zm20.43-1V85l-1.25-2.87V58.67q0-6.22-3.8-9.71t-11.64-3.49a33.81,33.81,0,0,0-10.53,1.68,29.44,29.44,0,0,0-8.91,4.55l-6.85-13.58a39.41,39.41,0,0,1,13.21-6A60.73,60.73,0,0,1,728.22,30q15.33,0,23.79,7.23t8.47,22.54V98Zm65,1a34,34,0,0,1-17.06-4.3,31,31,0,0,1-12-12,36.32,36.32,0,0,1-4.36-18.18,36.36,36.36,0,0,1,4.36-18.19,31,31,0,0,1,12-12A34,34,0,0,1,807.32,30a28.74,28.74,0,0,1,14.83,3.74A24.62,24.62,0,0,1,832,45.09q3.48,7.6,3.48,19.44T832.11,84a23.57,23.57,0,0,1-9.65,11.4A29.53,29.53,0,0,1,807.32,99Zm3.24-15.94a17.47,17.47,0,0,0,8.72-2.18,15.87,15.87,0,0,0,6.17-6.42,20.58,20.58,0,0,0,2.3-10,20.16,20.16,0,0,0-2.3-10,16.1,16.1,0,0,0-6.17-6.29,17.47,17.47,0,0,0-8.72-2.18,17.23,17.23,0,0,0-8.6,2.18,16,16,0,0,0-6.16,6.29,20.05,20.05,0,0,0-2.31,10,20.47,20.47,0,0,0,2.31,10A15.78,15.78,0,0,0,802,80.91,17.23,17.23,0,0,0,810.56,83.09Zm17.69,15V84.33l.37-19.93-1.24-19.8v-39h19.43V98ZM898,99A42.75,42.75,0,0,1,878,94.55a32.65,32.65,0,0,1-18.06-30,34.92,34.92,0,0,1,4.54-17.82,32,32,0,0,1,12.71-12.27A38,38,0,0,1,895.51,30a37,37,0,0,1,17.76,4.24,31.8,31.8,0,0,1,12.51,12q4.62,7.74,4.61,18.57c0,.74,0,1.6-.12,2.55S930.1,69.18,930,70H875.58V58.67H919.8L912.21,62a17.8,17.8,0,0,0-2-9.1,15.45,15.45,0,0,0-5.85-6,17,17,0,0,0-8.72-2.18,17.36,17.36,0,0,0-8.78,2.18,15.18,15.18,0,0,0-5.92,6.1,19.3,19.3,0,0,0-2.12,9.28v3A18.4,18.4,0,0,0,881.31,75a16.45,16.45,0,0,0,6.85,6.29,23.12,23.12,0,0,0,10.47,2.18,24.83,24.83,0,0,0,9.28-1.62A22.87,22.87,0,0,0,915.32,77L925.66,88.2a30.21,30.21,0,0,1-11.59,8A42.79,42.79,0,0,1,898,99Zm131.17-69a30.39,30.39,0,0,1,14.13,3.18,22.48,22.48,0,0,1,9.66,9.71q3.48,6.54,3.49,16.76V98H1037V62.66q0-8.1-3.3-12t-9.28-3.86a15.18,15.18,0,0,0-7.72,1.93,12.68,12.68,0,0,0-5.17,5.73,23.23,23.23,0,0,0-1.81,9.9V98H990.31V62.66q0-8.1-3.3-12t-9.53-3.86a15,15,0,0,0-7.6,1.93,13.09,13.09,0,0,0-5.23,5.73,22.43,22.43,0,0,0-1.87,9.9V98H943.35V31h18.56V49.2L958.42,44a23.22,23.22,0,0,1,9.84-10.4A29.8,29.8,0,0,1,982.84,30,28.45,28.45,0,0,1,999,34.69q7,4.68,9.22,14.27l-6.85-1.87a27.42,27.42,0,0,1,10.71-12.4A31.17,31.17,0,0,1,1029.18,30Zm54.56-8.35a12.5,12.5,0,0,1-8.85-3.11,10.09,10.09,0,0,1-3.36-7.72,10.13,10.13,0,0,1,3.36-7.73A12.54,12.54,0,0,1,1083.74,0a13.06,13.06,0,0,1,8.78,2.93,9.45,9.45,0,0,1,3.42,7.53,10.6,10.6,0,0,1-3.36,8A12.33,12.33,0,0,1,1083.74,21.67ZM1074,98V31h19.43V98Zm58.17,1a30.6,30.6,0,0,1-13.33-2.68,20.84,20.84,0,0,1-8.65-7.28,18.27,18.27,0,0,1-3-10.34,18.8,18.8,0,0,1,2.92-10.4q2.93-4.55,9.28-7t16.7-2.49h17.68V70h-15.69q-6.85,0-9.41,2.24a7.15,7.15,0,0,0-2.55,5.61,7,7,0,0,0,2.93,5.91,12.89,12.89,0,0,0,7.91,2.18,17.54,17.54,0,0,0,8.9-2.24,12.23,12.23,0,0,0,5.55-6.85l3,9.09a17.68,17.68,0,0,1-7.73,9.66Q1141,99,1132.19,99Zm20.43-1V85l-1.24-2.87V58.67q0-6.22-3.8-9.71t-11.65-3.49a33.9,33.9,0,0,0-10.53,1.68,29.5,29.5,0,0,0-8.9,4.55l-6.85-13.58a39.35,39.35,0,0,1,13.2-6,60.8,60.8,0,0,1,15.7-2.06q15.32,0,23.79,7.23t8.47,22.54V98Z"/></g></svg>