<svg id="Layer_1" data-name="Layer 1" xmlns="http://www.w3.org/2000/svg" viewBox="0 0 1170.16 191.86"><defs><style>.cls-1{fill:#fff;}</style></defs><g id="wordmark_light"><path class="cls-1" d="M236.5,130.8h.39q8.19,0,14.79,6.67a22.32,22.32,0,0,1,3.64,5.28c-2.57,1.33-3.91,2-4,2a22.68,22.68,0,0,0-2.19-3.35q-5.38-6.09-12.35-6.09h-.19q-7.28,0-12.66,6.51a20.28,20.28,0,0,0-4.19,12.4v.33a20,20,0,0,0,5.44,13.85,15.91,15.91,0,0,0,11.57,5.06q7.13,0,12.54-6.28a25.26,25.26,0,0,0,2.09-3.29l4,2.06a23,23,0,0,1-3.9,5.61A20.55,20.55,0,0,1,236.63,178q-8.85,0-15.63-7.41a25,25,0,0,1-5.76-16v-.33a24.37,24.37,0,0,1,6.76-17Q228.48,130.79,236.5,130.8Zm38.32,16.33h.84a14.22,14.22,0,0,1,9.41,3.84,16.07,16.07,0,0,1-.26,23.65,14.41,14.41,0,0,1-19.66-.48,15.78,15.78,0,0,1-4.77-11.28v-.39a15.66,15.66,0,0,1,4.74-11.21A14.24,14.24,0,0,1,274.82,147.13Zm-9.93,15.54v.16a11.21,11.21,0,0,0,3.42,8,10,10,0,0,0,6.93,2.87q4.86,0,8.31-4.45a11.88,11.88,0,0,0,2.07-6.63,11.28,11.28,0,0,0-3.68-8.41,9.73,9.73,0,0,0-6.51-2.61H275A10,10,0,0,0,267.8,155,11.51,11.51,0,0,0,264.89,162.67Zm46.28-15.31h.55q7.15,0,10.73,4.41,3.54-4.41,10.6-4.41h.9q8.67,0,11.93,6.32a11.15,11.15,0,0,1,1,4.64v19.56l-.07.09h-4.35l-.09-.09v-19.5q0-3.87-3.87-5.74a11.68,11.68,0,0,0-4.38-.77h-1.1c-4,0-6.66,1.37-7.86,4.09a7.79,7.79,0,0,0-.49,3v18.92l-.09.09h-4.35l-.07-.09V158.61q0-4.74-4.86-6.32a15,15,0,0,0-4.42-.42q-4,0-6,1.68-2.42,1.57-2.42,5.31v19l-.1.09h-4.32l-.09-.09v-30l.09-.1h4.32l.1.1v3A11.83,11.83,0,0,1,311.17,147.36Zm57.36-.29q6.64,0,11.38,5.86a16.08,16.08,0,0,1,3.12,9v.38c0,1-.06,1.48-.19,1.48H358.38a11.38,11.38,0,0,0,1.29,4.35,10.5,10.5,0,0,0,5.57,5,10.35,10.35,0,0,0,3.19.58,9.71,9.71,0,0,0,7.64-3.83,11.5,11.5,0,0,0,1.48-2.48h.07c1.74.68,3.1,1.26,4.09,1.74a14.79,14.79,0,0,1-3.16,4.73,14,14,0,0,1-10.08,4.35q-6.74,0-11.51-5.89a16.37,16.37,0,0,1-3.12-9.51v-.29a15.83,15.83,0,0,1,4.6-11.28A14,14,0,0,1,368.53,147.07Zm-9.7,12.28H378.1a10.89,10.89,0,0,0-4.57-6.22,9.3,9.3,0,0,0-5.13-1.52q-4.69,0-8,4.39A11.4,11.4,0,0,0,358.83,159.35Zm34,12.4a3.13,3.13,0,0,1,2.61,1.42,4.35,4.35,0,0,1,.58,2.35c0,2.65-1.57,5.36-4.71,8.16a12.22,12.22,0,0,1-1.67,1.35l-1.29-1.67q3.26-3,3.25-5.39a3.08,3.08,0,0,1-1.67-1.58,2.74,2.74,0,0,1-.39-1.45A3.17,3.17,0,0,1,391,172.3,3.24,3.24,0,0,1,392.8,171.75Zm30.71-40.95H428l0,0v42.63h20.2V178H423.51l0,0V130.83Zm42.12,16.27q6.63,0,11.37,5.86a16,16,0,0,1,3.13,9v.38c0,1-.07,1.48-.2,1.48H455.47a11.38,11.38,0,0,0,1.29,4.35,10.49,10.49,0,0,0,5.58,5,10.25,10.25,0,0,0,3.19.58,9.73,9.73,0,0,0,7.64-3.83,11.94,11.94,0,0,0,1.48-2.48h.06c1.74.68,3.11,1.26,4.1,1.74a15.14,15.14,0,0,1-3.16,4.73,14.07,14.07,0,0,1-10.09,4.35q-6.74,0-11.5-5.89a16.31,16.31,0,0,1-3.13-9.51v-.29a15.84,15.84,0,0,1,4.61-11.28A14,14,0,0,1,465.63,147.07Zm-9.7,12.28H475.2a10.9,10.9,0,0,0-4.58-6.22,9.29,9.29,0,0,0-5.12-1.52q-4.71,0-8,4.39A11.38,11.38,0,0,0,455.93,159.35Zm33-28.55h4.48l0,0v16.53h8.32l0,0v4.48l0,0H493.4v17.69a4.66,4.66,0,0,0,.68,2.45,3.46,3.46,0,0,0,1.84,1.26,3,3,0,0,0,.9.16H497a10.1,10.1,0,0,0,3.36-.84l.38-.19c1.1,2.41,1.71,3.78,1.84,4.13a14.25,14.25,0,0,1-1.84.74,13.16,13.16,0,0,1-3.54.67h-.55a7.74,7.74,0,0,1-3.61-1,7.41,7.41,0,0,1-3.54-4,10.51,10.51,0,0,1-.62-3.65V151.9h-5.06l0,0v-4.48l0,0h5.06Zm19.95,11.73V129.64h4.51v12.89Zm24.36,4.35h.45a13,13,0,0,1,6.26,1.58,11.21,11.21,0,0,1,2.06,1.38,13,13,0,0,1,1.58,1.61,3.23,3.23,0,0,1,.48.74q-2.92,1.68-3.87,2.29h0a6.5,6.5,0,0,0-1.74-1.67,9.71,9.71,0,0,0-10.5.25,3.76,3.76,0,0,0-1.45,2.84,2,2,0,0,0,.93,1.77,3.66,3.66,0,0,0,1,.61,22.53,22.53,0,0,0,4.83,1.55l4.1.81a13.26,13.26,0,0,1,2.64.9,11.54,11.54,0,0,1,2,1.19,11,11,0,0,1,1.2,1.13,7.52,7.52,0,0,1,1.93,5V169a8.38,8.38,0,0,1-2.1,5.42,10,10,0,0,1-1.32,1.26,14,14,0,0,1-1.87,1.16,14.86,14.86,0,0,1-6.34,1.45H533a14.48,14.48,0,0,1-6.87-1.74,12.75,12.75,0,0,1-4.89-4.94s.64-.39,1.86-1.06l2.07-1.13a8.36,8.36,0,0,0,4.31,3.71,10.89,10.89,0,0,0,3.74.64,9.88,9.88,0,0,0,5.09-1.32,5.29,5.29,0,0,0,1.16-.9,4.05,4.05,0,0,0,1.07-2.64q0-2.13-2.68-3.38A10,10,0,0,0,536,165a50.74,50.74,0,0,1-8.08-2q-6-2.19-6-7.06v-.1a8,8,0,0,1,2.23-5.41,8.59,8.59,0,0,1,1.48-1.29,11,11,0,0,1,3.35-1.61A14.51,14.51,0,0,1,533.2,146.88ZM569,130.8h4.44l0,0v47.11l0,0H569l0,0V130.83Zm26.23,16.27c4.42,0,8.22,2,11.37,5.86a16,16,0,0,1,3.13,9v.38c0,1-.06,1.48-.19,1.48H585.12a11.38,11.38,0,0,0,1.29,4.35,10.47,10.47,0,0,0,5.57,5,10.3,10.3,0,0,0,3.19.58,9.73,9.73,0,0,0,7.64-3.83,11.94,11.94,0,0,0,1.48-2.48h.07c1.74.68,3.1,1.26,4.09,1.74a15,15,0,0,1-3.16,4.73,14.05,14.05,0,0,1-10.09,4.35q-6.74,0-11.5-5.89a16.38,16.38,0,0,1-3.13-9.51v-.29a15.84,15.84,0,0,1,4.61-11.28A14,14,0,0,1,595.27,147.07Zm-9.7,12.28h19.27a10.86,10.86,0,0,0-4.58-6.22,9.27,9.27,0,0,0-5.12-1.52q-4.71,0-8,4.39A11.15,11.15,0,0,0,585.57,159.35Zm45-12.31a11.88,11.88,0,0,1,10.12,5.22l.09.19h0v-5l.07-.09h4.35l.1.09v30.46l-.1.09H640.9l-.07-.09v-5h0q-3.48,5.35-10.5,5.35v0l-.07,0a14.55,14.55,0,0,1-11-5,15.79,15.79,0,0,1-3.94-10.38v-.39a15.61,15.61,0,0,1,4.35-10.82A14.81,14.81,0,0,1,630.59,147Zm-10.73,15.5v.16a11,11,0,0,0,4.31,8.92,9.62,9.62,0,0,0,6,2.1q7,0,9.67-6.86a12,12,0,0,0,.71-4v-.71a11.64,11.64,0,0,0-1.78-5.86,9.23,9.23,0,0,0-8.08-4.68q-6.84,0-9.93,6.45A11.83,11.83,0,0,0,619.86,162.54ZM668,147.13a11.49,11.49,0,0,1,6,1.52l-1,4.8h0a10.59,10.59,0,0,0-5.28-1.68,7.62,7.62,0,0,0-7.54,5,6.3,6.3,0,0,0-.49,2.45v18.69l-.09.09h-4.32l-.1-.09v-30l.1-.09h4.32l.09.09v2.61h0a7.57,7.57,0,0,1,4.16-2.77A16.88,16.88,0,0,1,668,147.13Zm25.26.23h.55q9.06,0,12.18,6.93a11.67,11.67,0,0,1,.81,4.32v19.27l-.1.09h-4.35l-.06-.09V158.61c0-3.16-1.63-5.27-4.87-6.32a15,15,0,0,0-4.42-.42q-4,0-6,1.68-2.41,1.57-2.42,5.31v19l-.09.09h-4.32l-.1-.09v-30l.1-.1h4.32l.09.1v3A11.84,11.84,0,0,1,693.23,147.36Zm40.83-16.56h4.48l0,0v16.53h8.32l0,0v4.48l0,0h-8.32v17.69a4.66,4.66,0,0,0,.68,2.45,3.46,3.46,0,0,0,1.84,1.26,3,3,0,0,0,.9.16h.19a10.06,10.06,0,0,0,3.35-.84l.39-.19c1.1,2.41,1.71,3.78,1.84,4.13a14.92,14.92,0,0,1-1.84.74,13.16,13.16,0,0,1-3.54.67h-.55a7.74,7.74,0,0,1-3.61-1,7.41,7.41,0,0,1-3.54-4,10.51,10.51,0,0,1-.62-3.65V151.9H729l0,0v-4.48l0,0h5.06Zm33.13,16.33H768a14.22,14.22,0,0,1,9.41,3.84,16.07,16.07,0,0,1-.26,23.65,14.41,14.41,0,0,1-19.66-.48,15.78,15.78,0,0,1-4.77-11.28v-.39a15.66,15.66,0,0,1,4.74-11.21A14.24,14.24,0,0,1,767.19,147.13Zm-9.93,15.54v.16a11.21,11.21,0,0,0,3.42,8,10,10,0,0,0,6.93,2.87q4.86,0,8.31-4.45a11.88,11.88,0,0,0,2.07-6.63,11.28,11.28,0,0,0-3.68-8.41,9.73,9.73,0,0,0-6.51-2.61h-.48a10,10,0,0,0-7.15,3.31A11.51,11.51,0,0,0,757.26,162.67Zm44.06-15.54a12.56,12.56,0,0,1,7.18,2.23,6.53,6.53,0,0,1,1.1-1,6,6,0,0,1,2.16-1,6.19,6.19,0,0,1,1.61-.23h1l0,0v4.44l0,0h-.81a2,2,0,0,0-1.55.58.94.94,0,0,0-.25.58,10.25,10.25,0,0,1,1,2.19,11.22,11.22,0,0,1,.58,3.54,11,11,0,0,1-3.16,7.74,12,12,0,0,1-2,1.61,12.4,12.4,0,0,1-2.15,1.16,12.64,12.64,0,0,1-4.65.9h-.19a12.64,12.64,0,0,1-5.38-1.23,2.46,2.46,0,0,0-.61,1.58c0,.52.16.84.48,1q1.29.9,5.93.9l2.26,0q6.29,0,9.73,2.93a11.82,11.82,0,0,1,1.26,1.36,8.39,8.39,0,0,1,1.57,4.86,9,9,0,0,1-1.67,5.06,10.51,10.51,0,0,1-1.48,1.68,14.46,14.46,0,0,1-1.87,1.45,12.62,12.62,0,0,1-2,1,23.07,23.07,0,0,1-2.58.87,18.75,18.75,0,0,1-3.9.48h-1.09a18.88,18.88,0,0,1-5.9-1,17.51,17.51,0,0,1-2.71-1.28,14.18,14.18,0,0,1-1.8-1.36,15.25,15.25,0,0,1-1.26-1.38,8.63,8.63,0,0,1-1.77-5v-.36a9.23,9.23,0,0,1,2.1-5.44,8.49,8.49,0,0,1,1.57-1.52l.2-.16a5.26,5.26,0,0,1-1.61-4v-.1a6.81,6.81,0,0,1,1.41-4.13.15.15,0,0,0,.07-.12,12.42,12.42,0,0,1-1.26-1.65,11.13,11.13,0,0,1-1.64-5.8,11,11,0,0,1,3-7.51,12.17,12.17,0,0,1,1.45-1.35,15.17,15.17,0,0,1,2.1-1.29A12.72,12.72,0,0,1,801.32,147.13ZM793,181.62v.06a4.78,4.78,0,0,0,2.26,3.77,12.67,12.67,0,0,0,7.22,1.9,12.25,12.25,0,0,0,6.86-1.87,7.44,7.44,0,0,0,1.26-1.09,4.67,4.67,0,0,0,1.38-3.06v-.1a3.75,3.75,0,0,0-1.25-2.71,6.71,6.71,0,0,0-2.55-1.35,15.06,15.06,0,0,0-3.84-.52h-3.06a27.25,27.25,0,0,1-4.28-.29,14,14,0,0,0-2.06,1.61A5.63,5.63,0,0,0,793,181.62Zm.84-23.21v.29a6.45,6.45,0,0,0,1.48,4,8.48,8.48,0,0,0,1.19,1.16,8,8,0,0,0,4.87,1.61,7.77,7.77,0,0,0,5.22-2,6.48,6.48,0,0,0,.23-9.63,7.82,7.82,0,0,0-5.42-2.19h-.16a7.86,7.86,0,0,0-4.09,1.16,7.17,7.17,0,0,0-1.48,1.22,6.35,6.35,0,0,0-1.29,1.93A6.06,6.06,0,0,0,793.84,158.41Zm43.25-11.34q6.63,0,11.37,5.86a16,16,0,0,1,3.13,9v.38c0,1-.07,1.48-.2,1.48H826.94a11.51,11.51,0,0,0,1.28,4.35,10.49,10.49,0,0,0,5.58,5,10.25,10.25,0,0,0,3.19.58,9.73,9.73,0,0,0,7.64-3.83,11.94,11.94,0,0,0,1.48-2.48h.06c1.74.68,3.11,1.26,4.1,1.74a15.14,15.14,0,0,1-3.16,4.73A14.07,14.07,0,0,1,837,178.26q-6.74,0-11.5-5.89a16.31,16.31,0,0,1-3.13-9.51v-.29A15.84,15.84,0,0,1,827,151.29,14,14,0,0,1,837.09,147.07Zm-9.7,12.28h19.27a10.86,10.86,0,0,0-4.58-6.22,9.29,9.29,0,0,0-5.12-1.52q-4.71,0-8,4.39A11.38,11.38,0,0,0,827.39,159.35Zm33-28.55h4.48l0,0v16.53h8.32l0,0v4.48l0,0h-8.32v17.69a4.66,4.66,0,0,0,.68,2.45,3.46,3.46,0,0,0,1.84,1.26,3,3,0,0,0,.9.16h.19a10,10,0,0,0,3.35-.84l.39-.19c1.1,2.41,1.71,3.78,1.84,4.13a14.25,14.25,0,0,1-1.84.74,13.16,13.16,0,0,1-3.54.67h-.55a7.74,7.74,0,0,1-3.61-1,7.41,7.41,0,0,1-3.54-4,10.51,10.51,0,0,1-.62-3.65V151.9h-5.06l0,0v-4.48l0,0h5.06Zm20.82,0h4.32l.1.09v20a12.27,12.27,0,0,1,8.89-3.55q9.4,0,12.47,6.8a11.43,11.43,0,0,1,.87,4.48v19.31l-.06.09h-4.35l-.1-.09V158.61q0-5.33-5.9-6.58a11.05,11.05,0,0,0-2.41-.19h-1.29c-3.61,0-6.13,1.26-7.54,3.77a9,9,0,0,0-.58,3.29v19l-.1.09h-4.32l-.1-.09v-47Zm48.27,16.27q6.64,0,11.38,5.86a16.1,16.1,0,0,1,3.13,9v.38c0,1-.07,1.48-.2,1.48H919.29a11.38,11.38,0,0,0,1.29,4.35,10.49,10.49,0,0,0,5.58,5,10.25,10.25,0,0,0,3.19.58,9.69,9.69,0,0,0,7.63-3.83,11.63,11.63,0,0,0,1.49-2.48h.06c1.74.68,3.11,1.26,4.09,1.74a14.9,14.9,0,0,1-3.15,4.73,14.07,14.07,0,0,1-10.09,4.35q-6.74,0-11.5-5.89a16.31,16.31,0,0,1-3.13-9.51v-.29a15.84,15.84,0,0,1,4.61-11.28A14,14,0,0,1,929.44,147.07Zm-9.7,12.28H939a10.84,10.84,0,0,0-4.57-6.22,9.3,9.3,0,0,0-5.13-1.52q-4.69,0-8,4.39A11.4,11.4,0,0,0,919.74,159.35Zm44.6-12.22a11.53,11.53,0,0,1,6,1.52l-1,4.8h0a10.65,10.65,0,0,0-5.29-1.68,7.63,7.63,0,0,0-7.54,5,6.48,6.48,0,0,0-.48,2.45v18.69l-.1.09h-4.32l-.09-.09v-30l.09-.09h4.32l.1.09v2.61h0a7.54,7.54,0,0,1,4.16-2.77A16.8,16.8,0,0,1,964.34,147.13Zm35.26,24.4h.06a3.22,3.22,0,0,1,3.19,3.09v.2a3.09,3.09,0,0,1-1.19,2.41,3.12,3.12,0,0,1-2.06.74,3.22,3.22,0,0,1-2.22-.9,3.16,3.16,0,0,1-1-2.19v-.26a3.24,3.24,0,0,1,3.19-3.09Zm-2.84-40.73h5.74l0,0-.64,36.67h-4.51l-.65-36.67Z"/><path class="cls-1" d="M46.89,98.89a52.2,52.2,0,0,1-18.75-3.3,43.84,43.84,0,0,1-15-9.41,43.36,43.36,0,0,1-9.9-14.32A45,45,0,0,1-.32,53.8,45.1,45.1,0,0,1,3.23,35.73a43,43,0,0,1,10-14.32A44.89,44.89,0,0,1,28.26,12,52.45,52.45,0,0,1,47,8.7a51.94,51.94,0,0,1,20.56,3.93A39.81,39.81,0,0,1,83,24.15l-13.08,12A29.56,29.56,0,0,0,60,28.39a27.73,27.73,0,0,0-12-2.62A29.74,29.74,0,0,0,36.8,27.82,25.92,25.92,0,0,0,22.16,42.46,30.16,30.16,0,0,0,20.1,53.8a30.07,30.07,0,0,0,2.06,11.33A25.85,25.85,0,0,0,36.8,79.77,29.74,29.74,0,0,0,48,81.83a27.35,27.35,0,0,0,12-2.68,30.45,30.45,0,0,0,9.9-7.79L83,83.32A40.25,40.25,0,0,1,67.57,94.9,51.57,51.57,0,0,1,46.89,98.89Zm79.1-.5a42.78,42.78,0,0,1-20.06-4.48A33.19,33.19,0,0,1,92.6,81.64a33.54,33.54,0,0,1-4.73-17.75,34.82,34.82,0,0,1,4.55-17.82,32,32,0,0,1,12.7-12.27,38,38,0,0,1,18.38-4.42,37,37,0,0,1,17.75,4.24,31.85,31.85,0,0,1,12.52,12q4.6,7.72,4.6,18.56c0,.74,0,1.6-.12,2.55s-.17,1.85-.25,2.68H103.56V58h44.23l-7.6,3.37a17.7,17.7,0,0,0-2-9.1,15.45,15.45,0,0,0-5.85-6,17,17,0,0,0-8.72-2.18,17.36,17.36,0,0,0-8.78,2.18,15.18,15.18,0,0,0-5.92,6.1,19.32,19.32,0,0,0-2.12,9.28v3a18.4,18.4,0,0,0,2.49,9.72,16.42,16.42,0,0,0,6.86,6.29,23,23,0,0,0,10.46,2.18,24.83,24.83,0,0,0,9.28-1.62,22.87,22.87,0,0,0,7.41-4.86l10.34,11.22a30.18,30.18,0,0,1-11.58,8A42.88,42.88,0,0,1,126,98.39Zm45.34-1v-67h18.56V49.44l-2.62-5.61a21.54,21.54,0,0,1,9.6-10.77q6.6-3.68,16.07-3.68V47.44c-.75-.16-1.48-.29-2.18-.37A18.45,18.45,0,0,0,208.7,47q-8.22,0-13.08,4.61t-4.86,14.2V97.4Zm47.58-50.58V31.87h46.47v15Zm35.38,51.57q-11.83,0-18.43-6t-6.61-18V15.55h19.56V74a9.4,9.4,0,0,0,2.18,6.6A7.65,7.65,0,0,0,256.91,83a12.7,12.7,0,0,0,8-2.49L270,94.16a19.92,19.92,0,0,1-7,3.17A34.88,34.88,0,0,1,254.29,98.39Zm23-28.27V54.54h35.25V70.12Zm72,11.08H396.8V97.4H329.28V10.2h65.9V26.39H349.34Zm-1.5-36h42V61h-42Zm91.93,53.19a34.07,34.07,0,0,1-17.06-4.29,31.08,31.08,0,0,1-12-12,36.32,36.32,0,0,1-4.36-18.18,36.36,36.36,0,0,1,4.36-18.19,31,31,0,0,1,12-12,34,34,0,0,1,17.06-4.3,28.74,28.74,0,0,1,14.83,3.74,24.62,24.62,0,0,1,9.84,11.33q3.48,7.61,3.49,19.44t-3.37,19.43a23.57,23.57,0,0,1-9.65,11.4A29.53,29.53,0,0,1,439.77,98.39ZM443,82.45a17.45,17.45,0,0,0,8.72-2.18,15.87,15.87,0,0,0,6.17-6.42,20.58,20.58,0,0,0,2.3-10,20.16,20.16,0,0,0-2.3-10,16.16,16.16,0,0,0-6.17-6.29A17.45,17.45,0,0,0,443,45.45a17.17,17.17,0,0,0-8.59,2.18,16.09,16.09,0,0,0-6.17,6.29,20.05,20.05,0,0,0-2.3,10,20.47,20.47,0,0,0,2.3,10,15.8,15.8,0,0,0,6.17,6.42A17.17,17.17,0,0,0,443,82.45Zm17.69,15V83.69l.37-19.93L459.83,44V5h19.43V97.4Zm61.66,0L561.1,10.2H581l39.12,87.2H599l-32-77h8.09l-32,77Zm19.56-18.69L547,63.39h45.1l5.23,15.32ZM659.63,98.39A40.68,40.68,0,0,1,640.39,94a33,33,0,0,1-18-30.08,33.14,33.14,0,0,1,4.79-17.82,34.13,34.13,0,0,1,13.21-12.2,40.24,40.24,0,0,1,19.24-4.49,37.37,37.37,0,0,1,18.5,4.42,25.66,25.66,0,0,1,11.4,12.52l-14.95,8.22a18.07,18.07,0,0,0-6.6-6.91,17,17,0,0,0-8.47-2.18,18.12,18.12,0,0,0-8.84,2.18,16.29,16.29,0,0,0-6.36,6.29,19.64,19.64,0,0,0-2.36,10,20,20,0,0,0,2.36,10,16.11,16.11,0,0,0,6.36,6.35,18.12,18.12,0,0,0,8.84,2.18A17,17,0,0,0,668,80.27a17.79,17.79,0,0,0,6.6-7l14.95,8.22a26,26,0,0,1-11.4,12.46A36.86,36.86,0,0,1,659.63,98.39Zm61.91,0a30.6,30.6,0,0,1-13.33-2.68,20.84,20.84,0,0,1-8.65-7.28,18.27,18.27,0,0,1-3-10.34,18.8,18.8,0,0,1,2.92-10.4q2.93-4.55,9.28-7t16.7-2.49h17.68V69.37H727.4q-6.85,0-9.41,2.24a7.16,7.16,0,0,0-2.55,5.61,7,7,0,0,0,2.93,5.91,12.91,12.91,0,0,0,7.91,2.18,17.54,17.54,0,0,0,8.9-2.24,12.23,12.23,0,0,0,5.55-6.85l3,9.09A17.68,17.68,0,0,1,736,95Q730.4,98.39,721.54,98.39Zm20.43-1V84.32l-1.24-2.87V58q0-6.22-3.8-9.71t-11.65-3.49a33.9,33.9,0,0,0-10.53,1.68,29.5,29.5,0,0,0-8.9,4.55L699,37.48a39.35,39.35,0,0,1,13.2-6,60.8,60.8,0,0,1,15.7-2.06q15.32,0,23.79,7.23t8.47,22.54V97.4Zm65,1a34.11,34.11,0,0,1-17.07-4.29,31.14,31.14,0,0,1-12-12,36.32,36.32,0,0,1-4.36-18.18A36.36,36.36,0,0,1,778,45.7a31,31,0,0,1,12-12A34,34,0,0,1,807,29.38a28.73,28.73,0,0,1,14.82,3.74,24.51,24.51,0,0,1,9.84,11.33q3.5,7.61,3.49,19.44t-3.36,19.43a23.64,23.64,0,0,1-9.66,11.4A29.49,29.49,0,0,1,807,98.39Zm3.24-15.94A17.5,17.5,0,0,0,819,80.27a15.84,15.84,0,0,0,6.16-6.42,20.47,20.47,0,0,0,2.31-10,20.05,20.05,0,0,0-2.31-10A16.14,16.14,0,0,0,819,47.63a17.5,17.5,0,0,0-8.72-2.18,17.21,17.21,0,0,0-8.6,2.18,16.09,16.09,0,0,0-6.17,6.29,20.16,20.16,0,0,0-2.3,10,20.58,20.58,0,0,0,2.3,10,15.8,15.8,0,0,0,6.17,6.42A17.21,17.21,0,0,0,810.24,82.45Zm17.68,15V83.69l.38-19.93L827.05,44V5h19.43V97.4Zm69.76,1a42.74,42.74,0,0,1-20-4.48,32.68,32.68,0,0,1-18.07-30,34.92,34.92,0,0,1,4.55-17.82A32,32,0,0,1,876.82,33.8a38,38,0,0,1,18.37-4.42,36.92,36.92,0,0,1,17.75,4.24,31.79,31.79,0,0,1,12.52,12q4.6,7.72,4.61,18.56c0,.74,0,1.6-.13,2.55s-.16,1.85-.24,2.68H875.26V58h44.22l-7.6,3.37a17.8,17.8,0,0,0-2-9.1,15.4,15.4,0,0,0-5.86-6,17,17,0,0,0-8.72-2.18,17.36,17.36,0,0,0-8.78,2.18,15.31,15.31,0,0,0-5.92,6.1,19.32,19.32,0,0,0-2.11,9.28v3A18.4,18.4,0,0,0,881,74.35a16.39,16.39,0,0,0,6.85,6.29,23.08,23.08,0,0,0,10.46,2.18,24.83,24.83,0,0,0,9.28-1.62A23,23,0,0,0,915,76.34l10.34,11.22a30.29,30.29,0,0,1-11.59,8A42.84,42.84,0,0,1,897.68,98.39Zm131.17-69A30.4,30.4,0,0,1,1043,32.56a22.46,22.46,0,0,1,9.65,9.71q3.49,6.54,3.49,16.76V97.4H1036.7V62q0-8.1-3.3-12t-9.28-3.86a15.24,15.24,0,0,0-7.73,1.93,12.66,12.66,0,0,0-5.16,5.73,23.08,23.08,0,0,0-1.81,9.9V97.4H990V62q0-8.1-3.31-12t-9.52-3.86a14.94,14.94,0,0,0-7.6,1.93,13.05,13.05,0,0,0-5.24,5.73,22.58,22.58,0,0,0-1.86,9.9V97.4H943v-67h18.56V48.57l-3.48-5.24a23.22,23.22,0,0,1,9.84-10.4,29.85,29.85,0,0,1,14.57-3.55,28.48,28.48,0,0,1,16.2,4.67q7,4.68,9.21,14.27l-6.85-1.87a27.44,27.44,0,0,1,10.72-12.4A31.11,31.11,0,0,1,1028.85,29.38ZM1083.41,21a12.48,12.48,0,0,1-8.84-3.12,10.09,10.09,0,0,1-3.36-7.72,10.13,10.13,0,0,1,3.36-7.73,12.52,12.52,0,0,1,8.84-3.11,13,13,0,0,1,8.78,2.93,9.43,9.43,0,0,1,3.43,7.53,10.6,10.6,0,0,1-3.36,8A12.36,12.36,0,0,1,1083.41,21ZM1073.7,97.4v-67h19.43v67Zm58.17,1a30.6,30.6,0,0,1-13.33-2.68,20.87,20.87,0,0,1-8.66-7.28,18.34,18.34,0,0,1-3.05-10.34,18.81,18.81,0,0,1,2.93-10.4q2.92-4.55,9.28-7t16.69-2.49h17.69V69.37h-15.7c-4.56,0-7.7.75-9.4,2.24a7.16,7.16,0,0,0-2.55,5.61,7,7,0,0,0,2.92,5.91,12.91,12.91,0,0,0,7.91,2.18,17.6,17.6,0,0,0,8.91-2.24,12.21,12.21,0,0,0,5.54-6.85l3,9.09a17.62,17.62,0,0,1-7.72,9.66Q1140.71,98.39,1131.87,98.39Zm20.43-1V84.32l-1.25-2.87V58q0-6.22-3.8-9.71t-11.64-3.49a33.86,33.86,0,0,0-10.53,1.68,29.44,29.44,0,0,0-8.91,4.55l-6.85-13.58a39.5,39.5,0,0,1,13.21-6,60.73,60.73,0,0,1,15.69-2.06q15.33,0,23.79,7.23t8.48,22.54V97.4Z"/></g></svg>