<svg id="Layer_1" data-name="Layer 1" xmlns="http://www.w3.org/2000/svg" xmlns:xlink="http://www.w3.org/1999/xlink" viewBox="0 0 1151.74 1500"><defs><style>.cls-1{fill:url(#linear-gradient);}.cls-2{fill:url(#linear-gradient-2);}.cls-3{fill:url(#linear-gradient-3);}.cls-4{fill:url(#linear-gradient-4);}</style><linearGradient id="linear-gradient" x1="188.73" y1="294.95" x2="529.34" y2="98.3" gradientUnits="userSpaceOnUse"><stop offset="0" stop-color="#1a335e"/><stop offset="1" stop-color="#1263a1"/></linearGradient><linearGradient id="linear-gradient-2" x1="706.09" y1="406.98" x2="968.97" y2="255.21" gradientUnits="userSpaceOnUse"><stop offset="0" stop-color="#3a94d1"/><stop offset="1" stop-color="#5ccaea"/></linearGradient><linearGradient id="linear-gradient-3" x1="-146.56" y1="648.25" x2="743.93" y2="1162.37" gradientUnits="userSpaceOnUse"><stop offset="0" stop-color="#5ccaea"/><stop offset="1" stop-color="#3a94d1"/></linearGradient><linearGradient id="linear-gradient-4" x1="449.42" y1="1137.28" x2="1254.39" y2="672.53" xlink:href="#linear-gradient"/></defs><g id="icon_color"><circle class="cls-1" cx="359.04" cy="196.62" r="196.62"/><circle class="cls-2" cx="837.53" cy="331.1" r="151.74"/><path class="cls-3" d="M550.71,644.2,549,1500,409.17,1346.61a138.93,138.93,0,0,0-44.09-32.39l-307.38-143A99.79,99.79,0,0,1,0,1080.77v-675a42,42,0,0,1,59.66-38.05L507.09,575.81A75.41,75.41,0,0,1,550.71,644.2Z"/><path class="cls-4" d="M601,733l0,666.74,141.11-160a139.09,139.09,0,0,1,45.61-34.08L1094,1063.24a99.79,99.79,0,0,0,57.7-90.47V506c0-30.68-31.85-51-59.66-38.05L634.24,680.86A57.52,57.52,0,0,0,601,733Z"/></g></svg>