<svg id="Layer_1" data-name="Layer 1" xmlns="http://www.w3.org/2000/svg" viewBox="0 0 1151.74 1500"><g id="icon_dark"><circle cx="359.04" cy="196.62" r="196.62"/><circle cx="837.53" cy="331.1" r="151.74"/><path d="M550.71,644.2,549,1500,409.17,1346.61a138.93,138.93,0,0,0-44.09-32.39l-307.38-143A99.79,99.79,0,0,1,0,1080.77v-675a42,42,0,0,1,59.66-38.05L507.09,575.81A75.41,75.41,0,0,1,550.71,644.2Z"/><path d="M601,733l0,666.74,141.11-160a139.09,139.09,0,0,1,45.61-34.08L1094,1063.24a99.79,99.79,0,0,0,57.7-90.47V506c0-30.68-31.85-51-59.66-38.05L634.24,680.86A57.52,57.52,0,0,0,601,733Z"/></g></svg>