<svg id="Layer_1" data-name="Layer 1" xmlns="http://www.w3.org/2000/svg" viewBox="0 0 1170.16 193.38"><defs><style>.cls-1{fill:#fff;}</style></defs><g id="wordmark_light"><path class="cls-1" d="M236.66,132.32H237q8.19,0,14.79,6.67a22.77,22.77,0,0,1,3.65,5.28c-2.58,1.34-3.91,2-4,2a22.68,22.68,0,0,0-2.19-3.35q-5.39-6.09-12.34-6.09h-.2q-7.27,0-12.66,6.51a20.35,20.35,0,0,0-4.19,12.41v.32a19.92,19.92,0,0,0,5.45,13.85A15.87,15.87,0,0,0,236.91,175q7.13,0,12.54-6.28a25.26,25.26,0,0,0,2.09-3.29l4,2.07a23.2,23.2,0,0,1-3.9,5.6,20.55,20.55,0,0,1-14.82,6.42q-8.86,0-15.63-7.42a24.93,24.93,0,0,1-5.77-16v-.32a24.4,24.4,0,0,1,6.76-17.05Q228.63,132.32,236.66,132.32ZM275,148.66h.84a14.21,14.21,0,0,1,9.41,3.83,16.07,16.07,0,0,1-.26,23.65,14.38,14.38,0,0,1-19.66-.48,15.77,15.77,0,0,1-4.76-11.28V164a15.67,15.67,0,0,1,4.73-11.22A14.23,14.23,0,0,1,275,148.66Zm-9.92,15.53v.16a11.22,11.22,0,0,0,3.41,8.06,10,10,0,0,0,6.93,2.86q4.86,0,8.32-4.44a12,12,0,0,0,2.06-6.64,11.3,11.3,0,0,0-3.68-8.41,9.69,9.69,0,0,0-6.51-2.61h-.48a10,10,0,0,0-7.15,3.32A11.46,11.46,0,0,0,265.05,164.19Zm46.27-15.31h.55q7.15,0,10.73,4.42,3.54-4.43,10.6-4.42h.91q8.65,0,11.92,6.32a11,11,0,0,1,1,4.64V179.4l-.06.1h-4.36l-.09-.1V159.9q0-3.87-3.87-5.73a11.49,11.49,0,0,0-4.38-.78h-1.1q-6.06,0-7.86,4.1a7.75,7.75,0,0,0-.48,3V179.4l-.1.1h-4.35l-.06-.1V160.13c0-3.16-1.63-5.27-4.87-6.32a15,15,0,0,0-4.42-.42q-4,0-6,1.68-2.42,1.58-2.42,5.32v19l-.1.1h-4.31l-.1-.1v-30l.1-.1h4.31l.1.1v3A11.8,11.8,0,0,1,311.32,148.88Zm57.36-.29q6.65,0,11.38,5.87a16.05,16.05,0,0,1,3.12,9v.38c0,1-.06,1.49-.19,1.49H358.53a11.48,11.48,0,0,0,1.29,4.35,10.51,10.51,0,0,0,5.58,5,10.25,10.25,0,0,0,3.19.58,9.66,9.66,0,0,0,7.63-3.83,11.63,11.63,0,0,0,1.49-2.48h.06c1.74.69,3.1,1.27,4.09,1.74a15,15,0,0,1-3.15,4.74,14.07,14.07,0,0,1-10.09,4.35q-6.74,0-11.51-5.9a16.37,16.37,0,0,1-3.12-9.51v-.29a15.83,15.83,0,0,1,4.61-11.28A14,14,0,0,1,368.68,148.59ZM359,160.87h19.27a10.88,10.88,0,0,0-4.57-6.22,9.29,9.29,0,0,0-5.13-1.51q-4.69,0-8,4.38A11.52,11.52,0,0,0,359,160.87Zm34,12.41a3.12,3.12,0,0,1,2.61,1.41,4.3,4.3,0,0,1,.58,2.36q0,4-4.71,8.15a11.61,11.61,0,0,1-1.67,1.35l-1.29-1.67c2.17-2,3.25-3.82,3.25-5.38a3.12,3.12,0,0,1-1.67-1.58,2.76,2.76,0,0,1-.39-1.45,3.2,3.2,0,0,1,1.45-2.65A3.23,3.23,0,0,1,393,173.28Zm30.71-41h4.45l0,0V175h20.2v4.52H423.66l0,0V132.35Zm42.12,16.27c4.42,0,8.22,2,11.37,5.87a16,16,0,0,1,3.13,9v.38c0,1-.07,1.49-.19,1.49H455.63a11.48,11.48,0,0,0,1.29,4.35,10.45,10.45,0,0,0,5.57,5,10.3,10.3,0,0,0,3.19.58,9.7,9.7,0,0,0,7.64-3.83A11.94,11.94,0,0,0,474.8,169h.07c1.74.69,3.1,1.27,4.09,1.74a15.27,15.27,0,0,1-3.16,4.74,14.07,14.07,0,0,1-10.09,4.35q-6.73,0-11.5-5.9a16.31,16.31,0,0,1-3.13-9.51v-.29a15.87,15.87,0,0,1,4.61-11.28A14,14,0,0,1,465.78,148.59Zm-9.7,12.28h19.27a10.89,10.89,0,0,0-4.58-6.22,9.26,9.26,0,0,0-5.12-1.51q-4.71,0-8,4.38A11.5,11.5,0,0,0,456.08,160.87Zm33-28.55h4.48l0,0v16.53h8.31l0,0v4.48l0,0h-8.31v17.69a4.7,4.7,0,0,0,.67,2.45,3.48,3.48,0,0,0,1.84,1.25,3,3,0,0,0,.9.16h.2a10,10,0,0,0,3.35-.83l.38-.2c1.1,2.41,1.71,3.78,1.84,4.13a12.89,12.89,0,0,1-1.84.74,13.25,13.25,0,0,1-3.54.68h-.55a7.86,7.86,0,0,1-3.61-1,7.46,7.46,0,0,1-3.54-4,10.5,10.5,0,0,1-.62-3.64v-17.4H484l0,0v-4.48l0,0H489ZM509,144.05V131.16h4.51v12.89Zm24.36,4.35h.46a13.15,13.15,0,0,1,6.25,1.58,11.21,11.21,0,0,1,2.06,1.38A12.33,12.33,0,0,1,543.7,153a3,3,0,0,1,.48.75c-1.95,1.11-3.24,1.88-3.87,2.28h0a6.21,6.21,0,0,0-1.74-1.67,9.68,9.68,0,0,0-10.5.26,3.74,3.74,0,0,0-1.45,2.83,2,2,0,0,0,.93,1.77,3.93,3.93,0,0,0,1,.62,22.85,22.85,0,0,0,4.83,1.54l4.1.81a13.93,13.93,0,0,1,2.64.9,12,12,0,0,1,2,1.19,11.28,11.28,0,0,1,1.19,1.13,7.54,7.54,0,0,1,1.93,5v.2a8.42,8.42,0,0,1-2.09,5.41,11.39,11.39,0,0,1-1.32,1.26,15.35,15.35,0,0,1-1.87,1.16,14.94,14.94,0,0,1-6.35,1.45h-.42a14.51,14.51,0,0,1-6.87-1.74,12.8,12.8,0,0,1-4.89-4.93,19.15,19.15,0,0,1,1.87-1.07L525.3,171a8.4,8.4,0,0,0,4.32,3.7,10.8,10.8,0,0,0,3.73.65,9.94,9.94,0,0,0,5.1-1.32,5.66,5.66,0,0,0,1.16-.91,4.09,4.09,0,0,0,1.06-2.64q0-2.13-2.68-3.38a10.14,10.14,0,0,0-1.86-.58,49.57,49.57,0,0,1-8.09-2q-6-2.19-6-7.06v-.09a8,8,0,0,1,2.22-5.42,8.59,8.59,0,0,1,1.48-1.29,11.33,11.33,0,0,1,3.35-1.61A14.51,14.51,0,0,1,533.35,148.4Zm35.84-16.08h4.45l0,0v47.11l0,0h-4.45l0,0V132.35Zm26.23,16.27q6.65,0,11.38,5.87a16.05,16.05,0,0,1,3.12,9v.38c0,1-.06,1.49-.19,1.49H585.27a11.48,11.48,0,0,0,1.29,4.35,10.52,10.52,0,0,0,5.57,5,10.3,10.3,0,0,0,3.19.58,9.68,9.68,0,0,0,7.64-3.83,11.5,11.5,0,0,0,1.48-2.48h.07c1.74.69,3.1,1.27,4.09,1.74a15.1,15.1,0,0,1-3.16,4.74,14,14,0,0,1-10.08,4.35q-6.74,0-11.51-5.9a16.37,16.37,0,0,1-3.12-9.51v-.29a15.86,15.86,0,0,1,4.6-11.28A14,14,0,0,1,595.42,148.59Zm-9.7,12.28H605a10.89,10.89,0,0,0-4.58-6.22,9.24,9.24,0,0,0-5.12-1.51q-4.71,0-8,4.38A11.27,11.27,0,0,0,585.72,160.87Zm45-12.31a11.88,11.88,0,0,1,10.12,5.22l.09.19h0v-5l.06-.1h4.35l.1.1V179.4l-.1.1h-4.35l-.06-.1v-5h0q-3.48,5.34-10.5,5.35v0l-.07,0a14.57,14.57,0,0,1-11-5,15.83,15.83,0,0,1-3.93-10.38V164a15.64,15.64,0,0,1,4.35-10.83A14.83,14.83,0,0,1,630.74,148.56ZM620,164.06v.16a11.09,11.09,0,0,0,4.32,8.93,9.62,9.62,0,0,0,6,2.09q7,0,9.67-6.86a12,12,0,0,0,.71-4v-.71a11.72,11.72,0,0,0-1.77-5.86,9.24,9.24,0,0,0-8.09-4.67q-6.84,0-9.93,6.44A11.87,11.87,0,0,0,620,164.06Zm48.11-15.4a11.46,11.46,0,0,1,6,1.51l-1,4.8h0a10.67,10.67,0,0,0-5.28-1.67,7.62,7.62,0,0,0-7.54,5,6.3,6.3,0,0,0-.49,2.45V179.4l-.09.1h-4.32l-.1-.1v-30l.1-.09h4.32l.09.09V152h0A7.56,7.56,0,0,1,664,149.2,16.91,16.91,0,0,1,668.12,148.66Zm25.26.22h.55q9.06,0,12.18,6.93a11.71,11.71,0,0,1,.81,4.32V179.4l-.1.1h-4.35l-.06-.1V160.13q0-4.74-4.87-6.32a15,15,0,0,0-4.41-.42q-4,0-6,1.68-2.42,1.58-2.42,5.32v19l-.09.1h-4.32l-.1-.1v-30l.1-.1h4.32l.09.1v3A11.83,11.83,0,0,1,693.38,148.88Zm40.83-16.56h4.48l0,0v16.53H747l0,0v4.48l0,0h-8.31v17.69a4.7,4.7,0,0,0,.67,2.45,3.48,3.48,0,0,0,1.84,1.25,3,3,0,0,0,.9.16h.19a10,10,0,0,0,3.36-.83l.38-.2c1.1,2.41,1.71,3.78,1.84,4.13a12.89,12.89,0,0,1-1.84.74,13.25,13.25,0,0,1-3.54.68H742a7.86,7.86,0,0,1-3.61-1,7.46,7.46,0,0,1-3.54-4,10.5,10.5,0,0,1-.62-3.64v-17.4h-5.06l0,0v-4.48l0,0h5.06Zm33.13,16.34h.84a14.21,14.21,0,0,1,9.41,3.83,16.07,16.07,0,0,1-.26,23.65,14.38,14.38,0,0,1-19.66-.48,15.78,15.78,0,0,1-4.77-11.28V164a15.68,15.68,0,0,1,4.74-11.22A14.23,14.23,0,0,1,767.34,148.66Zm-9.92,15.53v.16a11.22,11.22,0,0,0,3.41,8.06,10,10,0,0,0,6.93,2.86c3.24,0,6-1.48,8.31-4.44a11.94,11.94,0,0,0,2.07-6.64,11.3,11.3,0,0,0-3.68-8.41,9.69,9.69,0,0,0-6.51-2.61h-.48a10,10,0,0,0-7.15,3.32A11.46,11.46,0,0,0,757.42,164.19Zm44.05-15.53a12.55,12.55,0,0,1,7.18,2.22,6.94,6.94,0,0,1,1.1-1,6,6,0,0,1,2.16-1,6.17,6.17,0,0,1,1.61-.22h1l0,0v4.45l0,0h-.81a2,2,0,0,0-1.54.58.92.92,0,0,0-.26.58,10.74,10.74,0,0,1,1,2.19,11.22,11.22,0,0,1,.58,3.54,11,11,0,0,1-3.16,7.74,11.53,11.53,0,0,1-2,1.61,12.2,12.2,0,0,1-2.16,1.16,12.63,12.63,0,0,1-4.64.9h-.2a12.78,12.78,0,0,1-5.38-1.22,2.42,2.42,0,0,0-.61,1.58q0,.76.48,1c.86.6,2.84.91,5.93.91l2.26,0q6.28,0,9.73,2.94a12.85,12.85,0,0,1,1.26,1.35,8.44,8.44,0,0,1,1.58,4.87,8.92,8.92,0,0,1-1.68,5.05,10.51,10.51,0,0,1-1.48,1.68,13.61,13.61,0,0,1-1.87,1.45,12.62,12.62,0,0,1-2,1,19.6,19.6,0,0,1-2.58.87,18.75,18.75,0,0,1-3.89.48h-1.1a19.15,19.15,0,0,1-5.9-1,17.87,17.87,0,0,1-2.7-1.29,15,15,0,0,1-1.81-1.36,15.25,15.25,0,0,1-1.26-1.38,8.61,8.61,0,0,1-1.77-5V183a9.25,9.25,0,0,1,2.1-5.45,8.14,8.14,0,0,1,1.58-1.51l.19-.17a5.26,5.26,0,0,1-1.61-4v-.1a6.73,6.73,0,0,1,1.42-4.12.22.22,0,0,0,.06-.13,11.8,11.8,0,0,1-1.26-1.65,11.1,11.1,0,0,1-1.64-5.8,11,11,0,0,1,3-7.5,11.71,11.71,0,0,1,1.45-1.36,15.17,15.17,0,0,1,2.1-1.29A12.71,12.71,0,0,1,801.47,148.66Zm-8.32,34.48v.06a4.77,4.77,0,0,0,2.26,3.77,12.69,12.69,0,0,0,7.22,1.9,12.25,12.25,0,0,0,6.86-1.87,7.07,7.07,0,0,0,1.26-1.09,4.65,4.65,0,0,0,1.38-3.06v-.1a3.71,3.71,0,0,0-1.25-2.71,6.71,6.71,0,0,0-2.55-1.35,15.51,15.51,0,0,0-3.83-.52h-3.07a27.25,27.25,0,0,1-4.28-.29,14.73,14.73,0,0,0-2.06,1.62A5.59,5.59,0,0,0,793.15,183.14Zm.84-23.2v.29a6.44,6.44,0,0,0,1.48,4,7.68,7.68,0,0,0,6.06,2.77,7.72,7.72,0,0,0,5.22-2,6.48,6.48,0,0,0,.23-9.63,7.82,7.82,0,0,0-5.42-2.19h-.16a7.86,7.86,0,0,0-4.09,1.16,7.17,7.17,0,0,0-1.48,1.22,6.27,6.27,0,0,0-1.29,1.94A6,6,0,0,0,794,159.94Zm43.25-11.35c4.42,0,8.22,2,11.37,5.87a16,16,0,0,1,3.13,9v.38c0,1-.06,1.49-.19,1.49H827.09a11.48,11.48,0,0,0,1.29,4.35,10.49,10.49,0,0,0,5.57,5,10.3,10.3,0,0,0,3.19.58,9.7,9.7,0,0,0,7.64-3.83,11.94,11.94,0,0,0,1.48-2.48h.07c1.74.69,3.1,1.27,4.09,1.74a15.1,15.1,0,0,1-3.16,4.74,14.05,14.05,0,0,1-10.09,4.35q-6.74,0-11.5-5.9a16.38,16.38,0,0,1-3.13-9.51v-.29a15.87,15.87,0,0,1,4.61-11.28A14,14,0,0,1,837.24,148.59Zm-9.7,12.28h19.27a10.89,10.89,0,0,0-4.58-6.22,9.26,9.26,0,0,0-5.12-1.51q-4.71,0-8,4.38A11.27,11.27,0,0,0,827.54,160.87Zm33-28.55H865l0,0v16.53h8.31l0,0v4.48l0,0H865v17.69a4.7,4.7,0,0,0,.67,2.45,3.48,3.48,0,0,0,1.84,1.25,3,3,0,0,0,.9.16h.19a10,10,0,0,0,3.36-.83l.38-.2c1.1,2.41,1.71,3.78,1.84,4.13a12.89,12.89,0,0,1-1.84.74,13.25,13.25,0,0,1-3.54.68h-.55a7.86,7.86,0,0,1-3.61-1,7.46,7.46,0,0,1-3.54-4,10.5,10.5,0,0,1-.62-3.64v-17.4h-5.06l0,0v-4.48l0,0h5.06Zm20.82,0h4.32l.1.09v20a12.26,12.26,0,0,1,8.89-3.54q9.4,0,12.47,6.8a11.4,11.4,0,0,1,.87,4.48v19.3l-.06.1h-4.35l-.1-.1V160.13q0-5.32-5.9-6.58a11.73,11.73,0,0,0-2.41-.19h-1.29q-5.42,0-7.54,3.77a9.07,9.07,0,0,0-.58,3.29v19l-.1.1h-4.32l-.09-.1v-47Zm48.28,16.27q6.63,0,11.37,5.87a16.07,16.07,0,0,1,3.13,9v.38c0,1-.07,1.49-.2,1.49H919.44a11.48,11.48,0,0,0,1.29,4.35,10.51,10.51,0,0,0,5.58,5,10.25,10.25,0,0,0,3.19.58,9.7,9.7,0,0,0,7.64-3.83,11.94,11.94,0,0,0,1.48-2.48h.06c1.74.69,3.11,1.27,4.1,1.74a15.27,15.27,0,0,1-3.16,4.74,14.07,14.07,0,0,1-10.09,4.35q-6.74,0-11.5-5.9a16.31,16.31,0,0,1-3.13-9.51v-.29a15.87,15.87,0,0,1,4.61-11.28A14,14,0,0,1,929.6,148.59Zm-9.7,12.28h19.27a10.93,10.93,0,0,0-4.58-6.22,9.28,9.28,0,0,0-5.12-1.51q-4.71,0-8,4.38A11.24,11.24,0,0,0,919.9,160.87Zm44.6-12.21a11.51,11.51,0,0,1,6,1.51l-1,4.8h0a10.7,10.7,0,0,0-5.29-1.67,7.63,7.63,0,0,0-7.54,5,6.48,6.48,0,0,0-.48,2.45V179.4l-.1.1h-4.32l-.09-.1v-30l.09-.09h4.32l.1.09V152h0a7.59,7.59,0,0,1,4.16-2.78A16.85,16.85,0,0,1,964.5,148.66Zm35.25,24.39h.06a3.19,3.19,0,0,1,2.42,1.13,3.09,3.09,0,0,1,.77,2v.2a3.07,3.07,0,0,1-1.19,2.41,3.13,3.13,0,0,1-2.06.75,3.18,3.18,0,0,1-2.22-.91,3.12,3.12,0,0,1-1-2.19v-.26a3.24,3.24,0,0,1,3.19-3.09Zm-2.84-40.73h5.74l0,0L1002,169h-4.51l-.65-36.67Z"/><path class="cls-1" d="M47,100.41a52.2,52.2,0,0,1-18.75-3.3A43.48,43.48,0,0,1,3.38,73.38,45,45,0,0,1-.17,55.32,45,45,0,0,1,3.38,37.26a43.08,43.08,0,0,1,10-14.33,44.66,44.66,0,0,1,15.08-9.4,52.18,52.18,0,0,1,18.74-3.3,51.94,51.94,0,0,1,20.56,3.92A39.91,39.91,0,0,1,83.16,25.67l-13.08,12a29.59,29.59,0,0,0-9.9-7.72,27.73,27.73,0,0,0-12-2.62A29.74,29.74,0,0,0,37,29.35,25.87,25.87,0,0,0,22.31,44a30.16,30.16,0,0,0-2,11.34,30.16,30.16,0,0,0,2,11.34A25.87,25.87,0,0,0,37,81.29a29.74,29.74,0,0,0,11.21,2.06,27.21,27.21,0,0,0,12-2.68,30.34,30.34,0,0,0,9.9-7.79l13.08,12A40.38,40.38,0,0,1,67.72,96.43,51.74,51.74,0,0,1,47,100.41Zm79.1-.49a42.78,42.78,0,0,1-20.06-4.49A33.19,33.19,0,0,1,92.75,83.16,33.54,33.54,0,0,1,88,65.41,34.79,34.79,0,0,1,92.57,47.6a31.85,31.85,0,0,1,12.7-12.27,37.94,37.94,0,0,1,18.38-4.43,37.06,37.06,0,0,1,17.75,4.24,31.85,31.85,0,0,1,12.52,12q4.61,7.73,4.61,18.56c0,.75-.05,1.6-.13,2.55s-.17,1.85-.25,2.68H103.72V59.55h44.22l-7.6,3.37a17.8,17.8,0,0,0-2-9.1,15.61,15.61,0,0,0-5.86-6,17,17,0,0,0-8.72-2.18A17.36,17.36,0,0,0,115,47.78a15.27,15.27,0,0,0-5.92,6.11A19.27,19.27,0,0,0,107,63.17v3a18.3,18.3,0,0,0,2.5,9.71,16.39,16.39,0,0,0,6.85,6.29,23,23,0,0,0,10.46,2.18A24.83,24.83,0,0,0,136,82.72a22.67,22.67,0,0,0,7.41-4.85l10.34,11.21a30.07,30.07,0,0,1-11.58,8A42.84,42.84,0,0,1,126.14,99.92Zm45.34-1v-67H190V51l-2.61-5.61A21.53,21.53,0,0,1,197,34.58q6.6-3.67,16.07-3.68V49c-.75-.17-1.48-.29-2.18-.38a18.31,18.31,0,0,0-2.06-.12q-8.22,0-13.08,4.61t-4.86,14.2V98.92Zm47.59-50.58V33.4h46.46V48.34Zm35.37,51.58q-11.83,0-18.43-6t-6.6-18V17.08H249V75.5a9.38,9.38,0,0,0,2.18,6.6,7.66,7.66,0,0,0,5.92,2.37A12.68,12.68,0,0,0,265,82l5.11,13.7a20.11,20.11,0,0,1-7,3.18A35.36,35.36,0,0,1,254.44,99.92Zm23.05-28.28V56.07h35.25V71.64Zm72,11.08H397v16.2H329.43V11.72h65.9V27.91H349.49Zm-1.5-36h42V62.54H348Zm91.93,53.2a34.07,34.07,0,0,1-17.06-4.3,31.12,31.12,0,0,1-12-12,36.36,36.36,0,0,1-4.36-18.19,36.36,36.36,0,0,1,4.36-18.19,31.12,31.12,0,0,1,12-12,34.07,34.07,0,0,1,17.06-4.3,28.74,28.74,0,0,1,14.83,3.74A24.6,24.6,0,0,1,464.59,46q3.48,7.59,3.49,19.43t-3.37,19.43a23.57,23.57,0,0,1-9.65,11.4A29.51,29.51,0,0,1,439.92,99.92Zm3.24-16a17.45,17.45,0,0,0,8.72-2.18,15.84,15.84,0,0,0,6.17-6.41,20.53,20.53,0,0,0,2.3-10,20.08,20.08,0,0,0-2.3-10,16.09,16.09,0,0,0-6.17-6.29A17.45,17.45,0,0,0,443.16,47a17.2,17.2,0,0,0-8.59,2.18,16.09,16.09,0,0,0-6.17,6.29,20.08,20.08,0,0,0-2.3,10,20.53,20.53,0,0,0,2.3,10,15.84,15.84,0,0,0,6.17,6.41A17.2,17.2,0,0,0,443.16,84Zm17.69,15V85.22l.38-19.94L460,45.48v-39h19.43V98.92Zm61.66,0,38.74-87.2h19.93l39.12,87.2H599.12l-32-77h8.09l-32,77Zm19.56-18.69,5.11-15.32h45.09l5.23,15.32ZM659.79,99.92a40.73,40.73,0,0,1-19.25-4.43,33.07,33.07,0,0,1-18-30.08,33,33,0,0,1,4.8-17.81,34,34,0,0,1,13.2-12.21,40.28,40.28,0,0,1,19.25-4.49,37.25,37.25,0,0,1,18.49,4.43,25.58,25.58,0,0,1,11.4,12.52l-14.95,8.22a18,18,0,0,0-6.6-6.92A17,17,0,0,0,659.66,47a18.12,18.12,0,0,0-8.84,2.18,16.29,16.29,0,0,0-6.36,6.29,19.77,19.77,0,0,0-2.36,10,20.11,20.11,0,0,0,2.36,10,16.11,16.11,0,0,0,6.36,6.35A18.12,18.12,0,0,0,659.66,84a17,17,0,0,0,8.47-2.18,17.72,17.72,0,0,0,6.6-7L689.68,83a26,26,0,0,1-11.4,12.46A36.85,36.85,0,0,1,659.79,99.92Zm61.91,0a30.71,30.71,0,0,1-13.33-2.68A20.9,20.9,0,0,1,699.71,90a18.27,18.27,0,0,1-3.05-10.34,18.8,18.8,0,0,1,2.92-10.4q2.92-4.54,9.28-7t16.7-2.49h17.69V70.89h-15.7q-6.85,0-9.4,2.24a7.15,7.15,0,0,0-2.56,5.61,7,7,0,0,0,2.93,5.92,13,13,0,0,0,7.91,2.18,17.61,17.61,0,0,0,8.91-2.25,12.22,12.22,0,0,0,5.54-6.85l3,9.1a17.64,17.64,0,0,1-7.72,9.65Q730.54,99.91,721.7,99.92Zm20.42-1V85.84L740.88,83V59.55q0-6.22-3.8-9.71t-11.65-3.49A33.79,33.79,0,0,0,714.91,48,29.44,29.44,0,0,0,706,52.58L699.15,39a39.35,39.35,0,0,1,13.2-6,60.8,60.8,0,0,1,15.7-2.06q15.32,0,23.79,7.23t8.47,22.55V98.92Zm65,1a34.14,34.14,0,0,1-17.07-4.3,31.18,31.18,0,0,1-12-12,36.46,36.46,0,0,1-4.36-18.19,36.46,36.46,0,0,1,4.36-18.19,31.18,31.18,0,0,1,12-12,34.14,34.14,0,0,1,17.07-4.3A28.7,28.7,0,0,1,822,34.64,24.48,24.48,0,0,1,831.81,46q3.5,7.59,3.49,19.43t-3.36,19.43a23.54,23.54,0,0,1-9.66,11.4A29.49,29.49,0,0,1,807.15,99.92Zm3.24-16a17.47,17.47,0,0,0,8.72-2.18,15.82,15.82,0,0,0,6.16-6.41,20.54,20.54,0,0,0,2.31-10,20.08,20.08,0,0,0-2.31-10,16.07,16.07,0,0,0-6.16-6.29A17.47,17.47,0,0,0,810.39,47a17.21,17.21,0,0,0-8.6,2.18,16.07,16.07,0,0,0-6.16,6.29,20.08,20.08,0,0,0-2.31,10,20.54,20.54,0,0,0,2.31,10,15.82,15.82,0,0,0,6.16,6.41A17.21,17.21,0,0,0,810.39,84Zm17.69,15V85.22l.37-19.94-1.25-19.8v-39h19.44V98.92Zm69.75,1a42.74,42.74,0,0,1-20.05-4.49,32.68,32.68,0,0,1-18.07-30,34.88,34.88,0,0,1,4.55-17.81A31.88,31.88,0,0,1,877,35.33a37.9,37.9,0,0,1,18.37-4.43,37,37,0,0,1,17.75,4.24,31.79,31.79,0,0,1,12.52,12q4.6,7.73,4.61,18.56,0,1.13-.12,2.55c-.09,1-.17,1.85-.25,2.68H875.41V59.55h44.22L912,62.92a17.8,17.8,0,0,0-2-9.1,15.51,15.51,0,0,0-5.85-6,17.05,17.05,0,0,0-8.72-2.18,17.39,17.39,0,0,0-8.79,2.18,15.25,15.25,0,0,0-5.91,6.11,19.16,19.16,0,0,0-2.12,9.28v3a18.39,18.39,0,0,0,2.49,9.71A16.39,16.39,0,0,0,888,82.16a23.12,23.12,0,0,0,10.47,2.18,24.86,24.86,0,0,0,9.28-1.62,22.78,22.78,0,0,0,7.41-4.85l10.34,11.21a30.18,30.18,0,0,1-11.59,8A42.84,42.84,0,0,1,897.83,99.92ZM1029,30.9a30.4,30.4,0,0,1,14.14,3.18,22.56,22.56,0,0,1,9.66,9.72q3.48,6.54,3.48,16.75V98.92h-19.43V63.54q0-8.1-3.3-12t-9.28-3.86a15.28,15.28,0,0,0-7.72,1.93,12.63,12.63,0,0,0-5.17,5.73,23.14,23.14,0,0,0-1.81,9.9V98.92H990.14V63.54q0-8.1-3.3-12t-9.53-3.86a15,15,0,0,0-7.6,1.93,13,13,0,0,0-5.23,5.73,22.49,22.49,0,0,0-1.87,9.9V98.92H943.18v-67h18.56V50.09l-3.49-5.23a23.19,23.19,0,0,1,9.84-10.41,29.87,29.87,0,0,1,14.57-3.55,28.39,28.39,0,0,1,16.2,4.68q7,4.66,9.22,14.26L1001.22,48a27.42,27.42,0,0,1,10.72-12.39A31.08,31.08,0,0,1,1029,30.9Zm54.56-8.34a12.48,12.48,0,0,1-8.84-3.12,10.09,10.09,0,0,1-3.36-7.72A10.09,10.09,0,0,1,1074.72,4a12.48,12.48,0,0,1,8.84-3.12,13.09,13.09,0,0,1,8.79,2.93,9.47,9.47,0,0,1,3.42,7.54,10.57,10.57,0,0,1-3.36,8A12.35,12.35,0,0,1,1083.56,22.56Zm-9.71,76.36v-67h19.43v67Zm58.17,1a30.74,30.74,0,0,1-13.33-2.68A21,21,0,0,1,1110,90a18.34,18.34,0,0,1-3-10.34,18.81,18.81,0,0,1,2.93-10.4q2.92-4.54,9.28-7t16.69-2.49h17.69V70.89h-15.69q-6.86,0-9.41,2.24a7.18,7.18,0,0,0-2.55,5.61,7,7,0,0,0,2.92,5.92,13,13,0,0,0,7.91,2.18,17.58,17.58,0,0,0,8.91-2.25,12.18,12.18,0,0,0,5.54-6.85l3,9.1a17.6,17.6,0,0,1-7.72,9.65Q1140.86,99.91,1132,99.92Zm20.43-1V85.84L1151.2,83V59.55q0-6.22-3.79-9.71t-11.65-3.49A33.9,33.9,0,0,0,1125.23,48a29.38,29.38,0,0,0-8.9,4.55L1109.47,39a39.5,39.5,0,0,1,13.21-6,60.78,60.78,0,0,1,15.69-2.06q15.33,0,23.8,7.23t8.47,22.55V98.92Z"/></g></svg>