<svg id="Layer_1" data-name="Layer 1" xmlns="http://www.w3.org/2000/svg" viewBox="0 0 1170.16 1479.73"><defs><style>.cls-1{fill:#fff;}</style></defs><g id="lockup_white"><circle class="cls-1" cx="409.69" cy="164.88" r="164.88"/><circle class="cls-1" cx="810.93" cy="277.64" r="127.25"/><path class="cls-1" d="M570.42,540.2,569,1257.84,451.73,1129.21a116.7,116.7,0,0,0-37-27.16L157,982.16a83.69,83.69,0,0,1-48.38-75.87V340.23a35.19,35.19,0,0,1,50-31.9l375.2,174.52A63.26,63.26,0,0,1,570.42,540.2Z"/><path class="cls-1" d="M612.57,614.68l0,559.1,118.33-134.14a116.63,116.63,0,0,1,38.25-28.58L1026,891.59a83.67,83.67,0,0,0,48.38-75.87V424.29a35.19,35.19,0,0,0-50-31.9L640.46,570.94A48.25,48.25,0,0,0,612.57,614.68Z"/><g id="wordmark"><path class="cls-1" d="M237.55,1418.43h.39q8.17,0,14.79,6.67a22.64,22.64,0,0,1,3.64,5.28c-2.58,1.34-3.91,2-4,2a22.68,22.68,0,0,0-2.19-3.35q-5.38-6.09-12.34-6.09h-.19q-7.29,0-12.67,6.51a20.37,20.37,0,0,0-4.19,12.41v.32a20,20,0,0,0,5.45,13.86,15.93,15.93,0,0,0,11.57,5.06q7.13,0,12.53-6.29a27.28,27.28,0,0,0,2.1-3.28l4,2.06a22.44,22.44,0,0,1-3.9,5.6,20.55,20.55,0,0,1-14.82,6.42q-8.87,0-15.63-7.41a24.94,24.94,0,0,1-5.77-16v-.32a24.41,24.41,0,0,1,6.77-17Q229.53,1418.44,237.55,1418.43Zm38.32,16.34h.83a14.24,14.24,0,0,1,9.41,3.83,16.09,16.09,0,0,1-.25,23.66,14.4,14.4,0,0,1-19.66-.49,15.75,15.75,0,0,1-4.77-11.28v-.38a15.7,15.7,0,0,1,4.74-11.22A14.21,14.21,0,0,1,275.87,1434.77Zm-9.93,15.53v.16a11.23,11.23,0,0,0,3.42,8.06,10,10,0,0,0,6.92,2.87q4.88,0,8.32-4.45a12,12,0,0,0,2.06-6.64,11.29,11.29,0,0,0-3.67-8.41,9.73,9.73,0,0,0-6.51-2.61H276a10,10,0,0,0-7.15,3.32A11.51,11.51,0,0,0,265.94,1450.3ZM312.22,1435h.54q7.15,0,10.73,4.42Q327,1435,334.1,1435h.9q8.67,0,11.92,6.32a11,11,0,0,1,1,4.64v19.56l-.06.1h-4.35l-.1-.1V1446a6.06,6.06,0,0,0-3.87-5.73,11.41,11.41,0,0,0-4.38-.78H334.1q-6.06,0-7.87,4.1a7.75,7.75,0,0,0-.48,3v18.92l-.1.1H321.3l-.06-.1v-19.27c0-3.16-1.62-5.26-4.87-6.32a15,15,0,0,0-4.41-.42q-4,0-6,1.68c-1.61,1-2.42,2.83-2.42,5.32v19l-.09.1H299.1l-.1-.1v-30l.1-.1h4.32l.09.1v3A11.83,11.83,0,0,1,312.22,1435Zm57.36-.29q6.63,0,11.37,5.87a16,16,0,0,1,3.13,9v.39c0,1-.07,1.48-.2,1.48H359.43a11.42,11.42,0,0,0,1.28,4.35,9.9,9.9,0,0,0,8.77,5.61,9.71,9.71,0,0,0,7.64-3.84,11.94,11.94,0,0,0,1.48-2.48h.06c1.74.69,3.11,1.27,4.1,1.74a15.27,15.27,0,0,1-3.16,4.74,14.07,14.07,0,0,1-10.09,4.35q-6.74,0-11.5-5.9a16.31,16.31,0,0,1-3.13-9.51v-.29a15.87,15.87,0,0,1,4.61-11.28A14,14,0,0,1,369.58,1434.7Zm-9.7,12.28h19.27a10.89,10.89,0,0,0-4.58-6.22,9.28,9.28,0,0,0-5.12-1.51q-4.71,0-8,4.38A11.5,11.5,0,0,0,359.88,1447Zm34,12.41a3.1,3.1,0,0,1,2.61,1.42,4.24,4.24,0,0,1,.58,2.35q0,4-4.7,8.15a10.77,10.77,0,0,1-1.68,1.35l-1.29-1.67q3.25-3,3.26-5.38a3.14,3.14,0,0,1-1.68-1.58,2.73,2.73,0,0,1-.38-1.45,3.16,3.16,0,0,1,1.45-2.64A3.11,3.11,0,0,1,393.84,1459.39Zm30.71-41H429l0,0v42.64h20.21v4.51H424.55l0,0v-47.11Zm42.12,16.27q6.65,0,11.38,5.87a16.05,16.05,0,0,1,3.12,9v.39c0,1-.06,1.48-.19,1.48H456.52a11.48,11.48,0,0,0,1.29,4.35,9.88,9.88,0,0,0,8.76,5.61,9.69,9.69,0,0,0,7.64-3.84,11.5,11.5,0,0,0,1.48-2.48h.07c1.74.69,3.1,1.27,4.09,1.74a14.92,14.92,0,0,1-3.16,4.74,14,14,0,0,1-10.08,4.35q-6.74,0-11.51-5.9a16.37,16.37,0,0,1-3.12-9.51v-.29a15.86,15.86,0,0,1,4.6-11.28A14,14,0,0,1,466.67,1434.7ZM457,1447h19.27a10.92,10.92,0,0,0-4.57-6.22,9.29,9.29,0,0,0-5.13-1.51q-4.69,0-8,4.38A11.27,11.27,0,0,0,457,1447Zm33-28.55h4.48l0,0V1435h8.31l0,0v4.47l0,0h-8.31v17.69a4.69,4.69,0,0,0,.68,2.45,3.46,3.46,0,0,0,1.83,1.25,3.11,3.11,0,0,0,.91.17h.19a10.11,10.11,0,0,0,3.35-.84l.39-.2c1.09,2.41,1.7,3.79,1.83,4.13a13.13,13.13,0,0,1-1.83.74,13.38,13.38,0,0,1-3.55.68h-.55a7.83,7.83,0,0,1-3.6-1,7.52,7.52,0,0,1-3.55-4,10.5,10.5,0,0,1-.61-3.64v-17.4h-5.06l0,0V1435l0,0h5.06Zm19.95,11.73v-12.89h4.51v12.89Zm24.36,4.35h.45a13.15,13.15,0,0,1,6.25,1.58,10.88,10.88,0,0,1,2.06,1.38,11.19,11.19,0,0,1,1.58,1.62,3.25,3.25,0,0,1,.49.74c-2,1.11-3.25,1.88-3.87,2.29h0a6.52,6.52,0,0,0-1.74-1.68,9.7,9.7,0,0,0-10.51.26,3.74,3.74,0,0,0-1.45,2.83,2,2,0,0,0,.93,1.78,4.23,4.23,0,0,0,1,.61,22.78,22.78,0,0,0,4.84,1.54l4.09.81a13.93,13.93,0,0,1,2.64.9,11.07,11.07,0,0,1,2,1.2,9.8,9.8,0,0,1,1.19,1.12,7.54,7.54,0,0,1,1.93,5v.2a8.34,8.34,0,0,1-2.09,5.41,11.39,11.39,0,0,1-1.32,1.26,13.28,13.28,0,0,1-8.22,2.61H534a14.47,14.47,0,0,1-6.86-1.74,12.69,12.69,0,0,1-4.9-4.93,20.85,20.85,0,0,1,1.87-1.06l2.06-1.13a8.4,8.4,0,0,0,4.32,3.7,10.85,10.85,0,0,0,3.74.65,9.88,9.88,0,0,0,5.09-1.32,5.1,5.1,0,0,0,1.16-.91,4,4,0,0,0,1.06-2.64c0-1.42-.89-2.54-2.67-3.38a10.86,10.86,0,0,0-1.87-.58,49.83,49.83,0,0,1-8.09-2q-6-2.19-6-7v-.1a8,8,0,0,1,2.22-5.42,9.28,9.28,0,0,1,1.48-1.28,11.16,11.16,0,0,1,3.36-1.62A14.41,14.41,0,0,1,534.25,1434.51Zm35.83-16.08h4.45l0,0v47.11l0,0h-4.45l0,0v-47.11Zm26.23,16.27q6.65,0,11.38,5.87a16.05,16.05,0,0,1,3.12,9v.39c0,1-.06,1.48-.19,1.48H586.16a11.48,11.48,0,0,0,1.29,4.35,9.9,9.9,0,0,0,8.77,5.61,9.67,9.67,0,0,0,7.63-3.84,11.63,11.63,0,0,0,1.49-2.48h.06c1.74.69,3.11,1.27,4.09,1.74a15,15,0,0,1-3.15,4.74,14.07,14.07,0,0,1-10.09,4.35q-6.74,0-11.5-5.9a16.31,16.31,0,0,1-3.13-9.51v-.29a15.83,15.83,0,0,1,4.61-11.28A14,14,0,0,1,596.31,1434.7Zm-9.7,12.28h19.27a10.88,10.88,0,0,0-4.57-6.22,9.29,9.29,0,0,0-5.13-1.51q-4.7,0-8,4.38A11.52,11.52,0,0,0,586.61,1447Zm45-12.31a11.86,11.86,0,0,1,10.12,5.22l.1.19h0v-5l.06-.1h4.35l.1.1v30.45l-.1.1h-4.35l-.06-.1v-5h0q-3.48,5.34-10.51,5.35v0l-.06,0a14.59,14.59,0,0,1-11-5,15.82,15.82,0,0,1-3.93-10.38v-.38a15.64,15.64,0,0,1,4.35-10.83A14.83,14.83,0,0,1,631.63,1434.67Zm-10.73,15.5v.16a11.07,11.07,0,0,0,4.32,8.93,9.56,9.56,0,0,0,6,2.09q7,0,9.67-6.86a11.68,11.68,0,0,0,.71-4v-.71a11.75,11.75,0,0,0-1.77-5.86,9.24,9.24,0,0,0-8.09-4.67q-6.82,0-9.92,6.44A11.7,11.7,0,0,0,620.9,1450.17Zm48.11-15.4a11.53,11.53,0,0,1,6,1.51l-1,4.8h0a10.73,10.73,0,0,0-5.29-1.67,7.62,7.62,0,0,0-7.54,5,6.52,6.52,0,0,0-.48,2.45v18.69l-.1.1h-4.32l-.09-.1v-30l.09-.1h4.32l.1.1v2.61h0a7.49,7.49,0,0,1,4.16-2.77A16.34,16.34,0,0,1,669,1434.77Zm25.27.22h.55q9,0,12.18,6.93a12,12,0,0,1,.8,4.32v19.27l-.09.1h-4.35l-.07-.1v-19.27c0-3.16-1.62-5.26-4.87-6.32a15,15,0,0,0-4.41-.42c-2.69,0-4.69.56-6,1.68-1.61,1-2.41,2.83-2.41,5.32v19l-.1.1h-4.32l-.09-.1v-30l.09-.1h4.32l.1.1v3A11.8,11.8,0,0,1,694.28,1435Zm40.83-16.56h4.48l0,0V1435h8.31l0,0v4.47l0,0h-8.31v17.69a4.69,4.69,0,0,0,.68,2.45,3.46,3.46,0,0,0,1.83,1.25,3.11,3.11,0,0,0,.9.17h.2a10.11,10.11,0,0,0,3.35-.84l.39-.2c1.09,2.41,1.7,3.79,1.83,4.13a13.13,13.13,0,0,1-1.83.74,13.38,13.38,0,0,1-3.55.68h-.55a7.79,7.79,0,0,1-3.6-1,7.52,7.52,0,0,1-3.55-4,10.5,10.5,0,0,1-.61-3.64v-17.4h-5.06l0,0V1435l0,0h5.06Zm33.12,16.34h.84a14.24,14.24,0,0,1,9.41,3.83,16.09,16.09,0,0,1-.25,23.66,14.74,14.74,0,0,1-9.58,3.64,14.58,14.58,0,0,1-10.08-4.13,15.75,15.75,0,0,1-4.77-11.28v-.38a15.7,15.7,0,0,1,4.74-11.22A14.21,14.21,0,0,1,768.23,1434.77Zm-9.92,15.53v.16a11.23,11.23,0,0,0,3.42,8.06,10,10,0,0,0,6.92,2.87q4.88,0,8.32-4.45a12,12,0,0,0,2.06-6.64,11.29,11.29,0,0,0-3.67-8.41,9.73,9.73,0,0,0-6.51-2.61h-.49a10,10,0,0,0-7.15,3.32A11.51,11.51,0,0,0,758.31,1450.3Zm44.05-15.53a12.58,12.58,0,0,1,7.19,2.22,7.52,7.52,0,0,1,1.09-1,6.11,6.11,0,0,1,2.16-1,6.23,6.23,0,0,1,1.61-.22h1l0,0v4.45l0,0h-.8a2,2,0,0,0-1.55.58,1,1,0,0,0-.26.58,10.23,10.23,0,0,1,1,2.19,11.23,11.23,0,0,1,.58,3.55,11,11,0,0,1-3.15,7.73,11.89,11.89,0,0,1-2,1.61,11.53,11.53,0,0,1-2.16,1.16,12.59,12.59,0,0,1-4.64.9h-.19a12.59,12.59,0,0,1-5.38-1.22,2.43,2.43,0,0,0-.62,1.58c0,.51.16.84.49,1q1.28.91,5.93.91l2.25,0q6.28,0,9.73,2.94a12.85,12.85,0,0,1,1.26,1.35,8.46,8.46,0,0,1,1.58,4.87,9,9,0,0,1-1.68,5.06,10.47,10.47,0,0,1-1.48,1.67,13,13,0,0,1-1.87,1.45,12.51,12.51,0,0,1-2,1,20.64,20.64,0,0,1-2.58.87,18.83,18.83,0,0,1-3.9.49H803a19.12,19.12,0,0,1-5.89-1,18,18,0,0,1-2.71-1.29,15.91,15.91,0,0,1-1.81-1.35,14.68,14.68,0,0,1-1.25-1.39,8.61,8.61,0,0,1-1.77-5v-.35a9.24,9.24,0,0,1,2.09-5.45,8.43,8.43,0,0,1,1.58-1.51l.19-.16a5.33,5.33,0,0,1-1.61-4v-.1a6.73,6.73,0,0,1,1.42-4.12.19.19,0,0,0,.06-.13A11.47,11.47,0,0,1,792,1452a11.07,11.07,0,0,1-1.65-5.8,11.61,11.61,0,0,1,4.42-8.87,14.5,14.5,0,0,1,2.09-1.29A12.89,12.89,0,0,1,802.36,1434.77Zm-8.31,34.48v.06a4.78,4.78,0,0,0,2.25,3.77,12.69,12.69,0,0,0,7.22,1.91,12.39,12.39,0,0,0,6.87-1.87,7.21,7.21,0,0,0,1.25-1.1A4.61,4.61,0,0,0,813,1469v-.1a3.68,3.68,0,0,0-1.26-2.7,6.47,6.47,0,0,0-2.54-1.36,15.62,15.62,0,0,0-3.84-.51h-3.06A28.75,28.75,0,0,1,798,1464a15.11,15.11,0,0,0-2.06,1.61A5.57,5.57,0,0,0,794.05,1469.25Zm.84-23.2v.29a6.44,6.44,0,0,0,1.48,4,7.48,7.48,0,0,0,1.19,1.16,8,8,0,0,0,4.87,1.61,7.8,7.8,0,0,0,5.22-2,6.5,6.5,0,0,0,.22-9.64,7.73,7.73,0,0,0-2.25-1.51,7.86,7.86,0,0,0-3.16-.68h-.16a8,8,0,0,0-4.1,1.16,7.45,7.45,0,0,0-1.48,1.22,6.78,6.78,0,0,0-1.29,1.94A6.17,6.17,0,0,0,794.89,1446.05Zm43.24-11.35q6.64,0,11.38,5.87a16.05,16.05,0,0,1,3.12,9v.39c0,1-.06,1.48-.19,1.48H828a11.48,11.48,0,0,0,1.29,4.35,9.88,9.88,0,0,0,8.76,5.61,9.69,9.69,0,0,0,7.64-3.84,11.5,11.5,0,0,0,1.48-2.48h.07c1.74.69,3.1,1.27,4.09,1.74a14.92,14.92,0,0,1-3.16,4.74,14,14,0,0,1-10.08,4.35q-6.74,0-11.51-5.9a16.37,16.37,0,0,1-3.12-9.51v-.29a15.83,15.83,0,0,1,4.61-11.28A14,14,0,0,1,838.13,1434.7Zm-9.7,12.28H847.7a10.92,10.92,0,0,0-4.57-6.22,9.29,9.29,0,0,0-5.13-1.51q-4.69,0-8,4.38A11.27,11.27,0,0,0,828.43,1447Zm33-28.55h4.48l0,0V1435h8.31l0,0v4.47l0,0h-8.31v17.69a4.69,4.69,0,0,0,.68,2.45,3.46,3.46,0,0,0,1.83,1.25,3.11,3.11,0,0,0,.9.17h.2a10.11,10.11,0,0,0,3.35-.84l.39-.2c1.09,2.41,1.7,3.79,1.83,4.13a13.13,13.13,0,0,1-1.83.74,13.38,13.38,0,0,1-3.55.68h-.55a7.79,7.79,0,0,1-3.6-1,7.52,7.52,0,0,1-3.55-4,10.5,10.5,0,0,1-.61-3.64v-17.4h-5.06l0,0V1435l0,0h5.06Zm20.82,0h4.31l.1.1v19.94a12.28,12.28,0,0,1,8.89-3.54q9.42,0,12.48,6.8a11.4,11.4,0,0,1,.87,4.48v19.3l-.07.1h-4.35l-.1-.1v-19.27c0-3.54-2-5.74-5.89-6.57a11.09,11.09,0,0,0-2.42-.2h-1.29q-5.41,0-7.54,3.77a9.07,9.07,0,0,0-.58,3.29v19l-.1.1h-4.31l-.1-.1v-47Zm48.27,16.27c4.42,0,8.22,2,11.37,5.87a16,16,0,0,1,3.13,9v.39c0,1-.06,1.48-.19,1.48H920.34a11.48,11.48,0,0,0,1.29,4.35,9.88,9.88,0,0,0,8.76,5.61,9.69,9.69,0,0,0,7.64-3.84,11.5,11.5,0,0,0,1.48-2.48h.07c1.74.69,3.1,1.27,4.09,1.74a15.1,15.1,0,0,1-3.16,4.74,14.05,14.05,0,0,1-10.09,4.35q-6.74,0-11.5-5.9a16.38,16.38,0,0,1-3.13-9.51v-.29a15.87,15.87,0,0,1,4.61-11.28A14,14,0,0,1,930.49,1434.7Zm-9.7,12.28h19.27a10.89,10.89,0,0,0-4.58-6.22,9.24,9.24,0,0,0-5.12-1.51q-4.71,0-8,4.38A11.27,11.27,0,0,0,920.79,1447Zm44.6-12.21a11.46,11.46,0,0,1,6,1.51l-1,4.8h0a10.67,10.67,0,0,0-5.28-1.67,7.62,7.62,0,0,0-7.54,5,6.34,6.34,0,0,0-.49,2.45v18.69l-.09.1h-4.32l-.1-.1v-30l.1-.1H957l.09.1v2.61h0a7.5,7.5,0,0,1,4.15-2.77A16.47,16.47,0,0,1,965.39,1434.77Zm35.25,24.39h.07a3.17,3.17,0,0,1,2.41,1.13,3.11,3.11,0,0,1,.78,2v.19a3.14,3.14,0,0,1-1.19,2.42,3.21,3.21,0,0,1-4.29-.17,3.17,3.17,0,0,1-1-2.19v-.25a3.26,3.26,0,0,1,3.19-3.1Zm-2.83-40.73h5.73l0,0-.65,36.67h-4.51l-.64-36.67Z"/><path class="cls-1" d="M47.93,1386.52a52.27,52.27,0,0,1-18.75-3.3,43.48,43.48,0,0,1-24.91-23.73,47.71,47.71,0,0,1,0-36.12,43.25,43.25,0,0,1,10-14.33,44.77,44.77,0,0,1,15.07-9.4,52.2,52.2,0,0,1,18.75-3.3,51.92,51.92,0,0,1,20.55,3.92,40,40,0,0,1,15.45,11.52l-13.08,12a29.62,29.62,0,0,0-9.91-7.72,27.7,27.7,0,0,0-12-2.62,29.78,29.78,0,0,0-11.21,2.06,25.89,25.89,0,0,0-14.63,14.63,32.24,32.24,0,0,0,0,22.68,25.89,25.89,0,0,0,14.63,14.63,29.78,29.78,0,0,0,11.21,2.06,27.18,27.18,0,0,0,12-2.68A30.24,30.24,0,0,0,71,1359l13.08,12a40.41,40.41,0,0,1-15.45,11.59A51.57,51.57,0,0,1,47.93,1386.52ZM127,1386a42.74,42.74,0,0,1-20-4.49,32.68,32.68,0,0,1-18.07-30,34.88,34.88,0,0,1,4.55-17.81,32,32,0,0,1,12.71-12.27,37.89,37.89,0,0,1,18.37-4.42,37,37,0,0,1,17.75,4.23,31.79,31.79,0,0,1,12.52,12q4.6,7.72,4.61,18.56,0,1.13-.12,2.55c-.09,1-.17,1.85-.25,2.68H104.61v-11.33h44.22l-7.6,3.36a17.74,17.74,0,0,0-2-9.09,15.43,15.43,0,0,0-5.86-6,17,17,0,0,0-8.71-2.18,17.39,17.39,0,0,0-8.79,2.18A15.25,15.25,0,0,0,110,1340a19.16,19.16,0,0,0-2.12,9.28v3a18.36,18.36,0,0,0,2.49,9.71,16.41,16.41,0,0,0,6.85,6.3,23.21,23.21,0,0,0,10.46,2.18,24.88,24.88,0,0,0,9.29-1.62,23.08,23.08,0,0,0,7.41-4.86l10.34,11.21a30.18,30.18,0,0,1-11.59,8A42.84,42.84,0,0,1,127,1386Zm45.34-1v-67h18.57v19.06l-2.62-5.6a21.51,21.51,0,0,1,9.59-10.78q6.6-3.68,16.07-3.67v18.06c-.75-.17-1.47-.29-2.18-.38a18.28,18.28,0,0,0-2.05-.12q-8.24,0-13.08,4.61t-4.86,14.2V1385ZM220,1334.45v-14.94h46.46v14.94ZM255.34,1386q-11.84,0-18.44-6t-6.6-18v-58.79h19.56v58.42a9.32,9.32,0,0,0,2.18,6.6,7.63,7.63,0,0,0,5.91,2.37,12.71,12.71,0,0,0,8-2.49l5.1,13.7a20.06,20.06,0,0,1-7,3.18A35.42,35.42,0,0,1,255.34,1386Zm23-28.28v-15.57h35.26v15.57Zm72,11.09h47.46V1385H330.33v-87.2h65.89V1314H350.38Zm-1.49-36h42v15.82h-42ZM440.82,1386a34.14,34.14,0,0,1-17.07-4.3,31.18,31.18,0,0,1-12-12,40.12,40.12,0,0,1,0-36.38,31.25,31.25,0,0,1,12-12,34.13,34.13,0,0,1,17.07-4.29,28.7,28.7,0,0,1,14.82,3.73,24.48,24.48,0,0,1,9.84,11.34q3.5,7.59,3.49,19.43T465.61,1371a23.54,23.54,0,0,1-9.66,11.4A29.49,29.49,0,0,1,440.82,1386Zm3.24-16a17.37,17.37,0,0,0,8.72-2.18,15.82,15.82,0,0,0,6.16-6.41,20.54,20.54,0,0,0,2.31-10,20,20,0,0,0-2.31-10,16.1,16.1,0,0,0-6.16-6.3,17.47,17.47,0,0,0-8.72-2.18,17.21,17.21,0,0,0-8.6,2.18,16.1,16.1,0,0,0-6.16,6.3,20,20,0,0,0-2.31,10,20.54,20.54,0,0,0,2.31,10,15.82,15.82,0,0,0,6.16,6.41A17.1,17.1,0,0,0,444.06,1370.08Zm17.69,15v-13.7l.37-19.93-1.25-19.81v-39h19.44V1385Zm61.65,0,38.75-87.2h19.93l39.11,87.2H600l-32-77h8.1l-32,77ZM543,1366.34l5.11-15.32h45.09l5.24,15.32Zm98.47,15.26a34.54,34.54,0,0,1-13.2-47.89,34.12,34.12,0,0,1,13.2-12.21,40.28,40.28,0,0,1,19.25-4.48,37.29,37.29,0,0,1,18.5,4.42,25.71,25.71,0,0,1,11.4,12.52l-15,8.22a18.1,18.1,0,0,0-6.6-6.92,17,17,0,0,0-8.47-2.18,18.19,18.19,0,0,0-8.85,2.18,16.22,16.22,0,0,0-6.35,6.3,19.63,19.63,0,0,0-2.37,10,20,20,0,0,0,2.37,10,16,16,0,0,0,6.35,6.35,18.08,18.08,0,0,0,8.85,2.18,16.89,16.89,0,0,0,8.47-2.18,17.86,17.86,0,0,0,6.6-7l15,8.23a26.13,26.13,0,0,1-11.4,12.45C673.9,1384.53,647,1384.55,641.43,1381.6Zm81.16,4.43a30.74,30.74,0,0,1-13.33-2.68,21,21,0,0,1-8.66-7.29,18.34,18.34,0,0,1-3.05-10.34,18.81,18.81,0,0,1,2.93-10.4q2.92-4.54,9.28-7t16.69-2.49h17.69V1357h-15.7c-4.56,0-7.7.75-9.4,2.24a7.18,7.18,0,0,0-2.55,5.61,7,7,0,0,0,2.92,5.92,13,13,0,0,0,7.91,2.18,17.61,17.61,0,0,0,8.91-2.25,12.18,12.18,0,0,0,5.54-6.85l3,9.1a17.6,17.6,0,0,1-7.72,9.65Q731.43,1386,722.59,1386Zm20.43-1V1372l-1.25-2.86v-23.42c0-4.16-1.26-7.39-3.8-9.72s-6.41-3.49-11.64-3.49a33.81,33.81,0,0,0-10.53,1.68,29.44,29.44,0,0,0-8.91,4.55L700,1325.11a39.69,39.69,0,0,1,13.21-6,60.72,60.72,0,0,1,15.69-2q15.33,0,23.79,7.22t8.48,22.55V1385Zm65,1a34.07,34.07,0,0,1-17.06-4.3,31,31,0,0,1-12-12,40.12,40.12,0,0,1,0-36.38,31.12,31.12,0,0,1,12-12A34.07,34.07,0,0,1,808,1317a28.73,28.73,0,0,1,14.83,3.73,24.6,24.6,0,0,1,9.84,11.34q3.48,7.59,3.48,19.43T832.83,1371a23.57,23.57,0,0,1-9.65,11.4A29.53,29.53,0,0,1,808,1386Zm3.24-16a17.34,17.34,0,0,0,8.72-2.18,15.9,15.9,0,0,0,6.17-6.41,20.65,20.65,0,0,0,2.3-10,20.15,20.15,0,0,0-2.3-10,16.19,16.19,0,0,0-6.17-6.3,17.45,17.45,0,0,0-8.72-2.18,17.17,17.17,0,0,0-8.59,2.18,16.05,16.05,0,0,0-6.17,6.3,20,20,0,0,0-2.31,10,20.54,20.54,0,0,0,2.31,10,15.77,15.77,0,0,0,6.17,6.41A17.07,17.07,0,0,0,811.28,1370.08ZM829,1385v-13.7l.37-19.93-1.24-19.81v-39h19.43V1385Zm69.76,1a42.75,42.75,0,0,1-20.06-4.49,32.65,32.65,0,0,1-18.06-30,34.88,34.88,0,0,1,4.54-17.81,32,32,0,0,1,12.71-12.27,37.89,37.89,0,0,1,18.37-4.42,37.1,37.1,0,0,1,17.76,4.23,31.76,31.76,0,0,1,12.51,12q4.62,7.72,4.61,18.56,0,1.13-.12,2.55c-.08,1-.17,1.85-.25,2.68H876.3v-11.33h44.23l-7.6,3.36a17.74,17.74,0,0,0-2-9.09,15.47,15.47,0,0,0-5.85-6,17,17,0,0,0-8.72-2.18,17.36,17.36,0,0,0-8.78,2.18,15.21,15.21,0,0,0-5.92,6.11,19.27,19.27,0,0,0-2.12,9.28v3A18.36,18.36,0,0,0,882,1362a16.47,16.47,0,0,0,6.85,6.3,23.25,23.25,0,0,0,10.47,2.18,24.83,24.83,0,0,0,9.28-1.62A22.87,22.87,0,0,0,916,1364l10.34,11.21a30.07,30.07,0,0,1-11.58,8A42.88,42.88,0,0,1,898.73,1386Zm131.17-69a30.45,30.45,0,0,1,14.14,3.17,22.53,22.53,0,0,1,9.65,9.72q3.48,6.54,3.49,16.75V1385h-19.44v-35.38q0-8.1-3.3-12t-9.28-3.86a15.28,15.28,0,0,0-7.72,1.93,12.68,12.68,0,0,0-5.17,5.73,23.31,23.31,0,0,0-1.81,9.91V1385H991v-35.38q0-8.1-3.3-12t-9.53-3.86a15.07,15.07,0,0,0-7.6,1.93,13.09,13.09,0,0,0-5.23,5.73,22.51,22.51,0,0,0-1.87,9.91V1385H944.07v-67h18.56v18.19l-3.49-5.23a23.12,23.12,0,0,1,9.84-10.4,29.8,29.8,0,0,1,14.58-3.55,28.37,28.37,0,0,1,16.19,4.67q7,4.66,9.22,14.26l-6.85-1.87a27.34,27.34,0,0,1,10.71-12.39A31.09,31.09,0,0,1,1029.9,1317Zm54.56-8.35a12.5,12.5,0,0,1-8.85-3.12,10.55,10.55,0,0,1,0-15.44,12.5,12.5,0,0,1,8.85-3.12,13.06,13.06,0,0,1,8.78,2.93,9.48,9.48,0,0,1,3.43,7.54,10.58,10.58,0,0,1-3.37,8A12.34,12.34,0,0,1,1084.46,1308.67Zm-9.72,76.36v-67h19.43v67Zm58.17,1a30.67,30.67,0,0,1-13.32-2.68,20.9,20.9,0,0,1-8.66-7.29,18.27,18.27,0,0,1-3-10.34,18.8,18.8,0,0,1,2.92-10.4q2.92-4.54,9.28-7t16.7-2.49h17.68V1357h-15.69c-4.57,0-7.7.75-9.41,2.24a7.18,7.18,0,0,0-2.55,5.61,7,7,0,0,0,2.93,5.92,13,13,0,0,0,7.91,2.18,17.55,17.55,0,0,0,8.9-2.25,12.2,12.2,0,0,0,5.55-6.85l3,9.1a17.66,17.66,0,0,1-7.73,9.65Q1141.77,1386,1132.91,1386Zm20.43-1V1372l-1.24-2.86v-23.42c0-4.16-1.27-7.39-3.8-9.72s-6.42-3.49-11.65-3.49a33.79,33.79,0,0,0-10.52,1.68,29.44,29.44,0,0,0-8.91,4.55l-6.85-13.58a39.55,39.55,0,0,1,13.2-6,60.79,60.79,0,0,1,15.7-2q15.32,0,23.79,7.22t8.47,22.55V1385Z"/></g></g></svg>