<svg id="Layer_1" data-name="Layer 1" xmlns="http://www.w3.org/2000/svg" viewBox="0 0 1170.16 1479.63"><g id="lockup_dark"><circle cx="409.69" cy="164.88" r="164.88"/><circle cx="810.93" cy="277.64" r="127.25"/><path d="M570.42,540.2,569,1257.84,451.73,1129.21a116.7,116.7,0,0,0-37-27.16L157,982.16a83.69,83.69,0,0,1-48.38-75.87V340.23a35.19,35.19,0,0,1,50-31.9l375.2,174.52A63.26,63.26,0,0,1,570.42,540.2Z"/><path d="M612.57,614.68l0,559.1,118.33-134.14a116.63,116.63,0,0,1,38.25-28.58L1026,891.59a83.67,83.67,0,0,0,48.38-75.87V424.29a35.19,35.19,0,0,0-50-31.9L640.46,570.94A48.25,48.25,0,0,0,612.57,614.68Z"/><g id="wordmark"><path d="M236.56,1417.63H237q8.18,0,14.77,6.66a22.64,22.64,0,0,1,3.64,5.28c-2.58,1.33-3.91,2-4,2a22.11,22.11,0,0,0-2.19-3.34q-5.37-6.09-12.33-6.09h-.19q-7.28,0-12.65,6.5a20.34,20.34,0,0,0-4.19,12.4v.32a20,20,0,0,0,5.44,13.84,15.9,15.9,0,0,0,11.56,5q7.11,0,12.52-6.27a25.26,25.26,0,0,0,2.09-3.29l4,2.06a22.42,22.42,0,0,1-3.89,5.6,20.52,20.52,0,0,1-14.81,6.41q-8.85,0-15.61-7.4a25,25,0,0,1-5.76-16V1441a24.35,24.35,0,0,1,6.76-17Q228.54,1417.63,236.56,1417.63ZM274.83,1434h.84a14.16,14.16,0,0,1,9.4,3.83,16.06,16.06,0,0,1-.26,23.62,14.37,14.37,0,0,1-19.63-.48,15.75,15.75,0,0,1-4.77-11.27v-.38a15.67,15.67,0,0,1,4.73-11.2A14.22,14.22,0,0,1,274.83,1434Zm-9.91,15.51v.16a11.24,11.24,0,0,0,3.41,8.05,10,10,0,0,0,6.92,2.86q4.86,0,8.31-4.44a12,12,0,0,0,2.06-6.63,11.31,11.31,0,0,0-3.67-8.4,9.73,9.73,0,0,0-6.5-2.61H275a10,10,0,0,0-7.14,3.32A11.45,11.45,0,0,0,264.92,1449.46Zm46.22-15.29h.55q7.14,0,10.72,4.41,3.54-4.41,10.59-4.41h.9q8.66,0,11.91,6.31a11,11,0,0,1,1,4.64v19.53l-.06.1h-4.35l-.1-.1v-19.47a6,6,0,0,0-3.86-5.73,11.45,11.45,0,0,0-4.38-.77H333c-4,0-6.65,1.36-7.86,4.09a7.72,7.72,0,0,0-.48,3v18.89l-.09.1h-4.35l-.06-.1v-19.24c0-3.16-1.63-5.26-4.87-6.31a14.91,14.91,0,0,0-4.4-.42c-2.69,0-4.69.56-6,1.67q-2.42,1.58-2.42,5.31v19l-.1.1H298l-.09-.1v-29.93l.09-.1h4.31l.1.1v3A11.82,11.82,0,0,1,311.14,1434.17Zm57.3-.29q6.63,0,11.36,5.86a16,16,0,0,1,3.12,9v.39c0,1-.06,1.48-.19,1.48H358.3a11.4,11.4,0,0,0,1.29,4.34,10.41,10.41,0,0,0,5.57,5,10.24,10.24,0,0,0,3.18.58,9.68,9.68,0,0,0,7.63-3.83,11.69,11.69,0,0,0,1.48-2.48h.07c1.73.69,3.1,1.27,4.08,1.74a14.9,14.9,0,0,1-3.15,4.73,14,14,0,0,1-10.08,4.35q-6.72,0-11.49-5.89a16.32,16.32,0,0,1-3.12-9.5v-.29a15.8,15.8,0,0,1,4.6-11.26A14,14,0,0,1,368.44,1433.88Zm-9.69,12.27H378a10.89,10.89,0,0,0-4.57-6.22,9.26,9.26,0,0,0-5.12-1.51q-4.69,0-8,4.38A11.38,11.38,0,0,0,358.75,1446.15Zm33.93,12.39a3.09,3.09,0,0,1,2.6,1.41,4.29,4.29,0,0,1,.58,2.35q0,4-4.7,8.15a11.05,11.05,0,0,1-1.67,1.35l-1.29-1.67q3.26-3,3.25-5.38a3.08,3.08,0,0,1-1.67-1.58,2.74,2.74,0,0,1-.39-1.45,3.26,3.26,0,0,1,3.29-3.18Zm30.67-40.91h4.44l0,0v42.58H448v4.51H423.35l0,0v-47.06Zm42.07,16.25q6.63,0,11.37,5.86a16,16,0,0,1,3.12,9v.39c0,1-.07,1.48-.19,1.48H455.28a11.4,11.4,0,0,0,1.29,4.34,10.45,10.45,0,0,0,5.57,5,10.25,10.25,0,0,0,3.19.58,9.68,9.68,0,0,0,7.63-3.83,11.69,11.69,0,0,0,1.48-2.48h.06c1.74.69,3.1,1.27,4.09,1.74a15,15,0,0,1-3.16,4.73,14,14,0,0,1-10.07,4.35q-6.74,0-11.49-5.89a16.32,16.32,0,0,1-3.12-9.5v-.29a15.8,15.8,0,0,1,4.6-11.26A14,14,0,0,1,465.42,1433.88Zm-9.69,12.27H475a10.84,10.84,0,0,0-4.57-6.22,9.24,9.24,0,0,0-5.12-1.51q-4.69,0-8,4.38A11.4,11.4,0,0,0,455.73,1446.15Zm32.93-28.52h4.48l0,0v16.51h8.31l0,0v4.48l0,0h-8.31v17.67a4.69,4.69,0,0,0,.68,2.45,3.46,3.46,0,0,0,1.83,1.25,3,3,0,0,0,.9.16h.2a10,10,0,0,0,3.34-.83l.39-.2c1.09,2.41,1.71,3.78,1.83,4.12a12,12,0,0,1-1.83.74,12.86,12.86,0,0,1-3.54.68h-.55a7.67,7.67,0,0,1-3.6-1,7.41,7.41,0,0,1-3.54-4,10.5,10.5,0,0,1-.62-3.64v-17.38h-5.05l0,0v-4.48l0,0h5.05Zm19.93,11.71v-12.87h4.51v12.87Zm24.33,4.35h.45a13,13,0,0,1,6.25,1.58,11.21,11.21,0,0,1,2.06,1.38,13,13,0,0,1,1.58,1.61,3,3,0,0,1,.48.74q-2.93,1.68-3.86,2.28h0a6.6,6.6,0,0,0-1.73-1.67,8.74,8.74,0,0,0-5-1.42,8.62,8.62,0,0,0-5.51,1.68,3.78,3.78,0,0,0-1.45,2.83,2,2,0,0,0,.94,1.77,3.51,3.51,0,0,0,1,.61,22.4,22.4,0,0,0,4.82,1.55l4.09.8a13.93,13.93,0,0,1,2.64.9,11,11,0,0,1,2,1.2,9.59,9.59,0,0,1,1.2,1.12,7.59,7.59,0,0,1,1.93,5v.19a8.36,8.36,0,0,1-2.1,5.41,9.13,9.13,0,0,1-1.32,1.25,13,13,0,0,1-1.86,1.16,14.75,14.75,0,0,1-6.34,1.45h-.42a14.47,14.47,0,0,1-6.86-1.74,12.7,12.7,0,0,1-4.89-4.92,20.85,20.85,0,0,1,1.87-1.06l2.06-1.13a8.34,8.34,0,0,0,4.31,3.7,10.8,10.8,0,0,0,3.73.65,9.88,9.88,0,0,0,5.09-1.32,5.1,5.1,0,0,0,1.16-.91,4,4,0,0,0,1.06-2.63q0-2.13-2.67-3.38a10,10,0,0,0-1.87-.58,49.67,49.67,0,0,1-8.08-2q-6-2.19-6-7v-.09a7.94,7.94,0,0,1,2.22-5.41,8.59,8.59,0,0,1,1.48-1.29,11,11,0,0,1,3.35-1.61A14.4,14.4,0,0,1,532.92,1433.69Zm35.8-16.06h4.44l0,0v47.06l0,0h-4.44l0,0v-47.06Zm26.2,16.25q6.63,0,11.36,5.86a16,16,0,0,1,3.12,9v.39c0,1-.06,1.48-.19,1.48H584.78a11.4,11.4,0,0,0,1.29,4.34,10.41,10.41,0,0,0,5.57,5,10.24,10.24,0,0,0,3.18.58,9.66,9.66,0,0,0,7.63-3.83,11.27,11.27,0,0,0,1.48-2.48H604c1.73.69,3.1,1.27,4.08,1.74a14.9,14.9,0,0,1-3.15,4.73,14,14,0,0,1-10.07,4.35q-6.74,0-11.5-5.89a16.32,16.32,0,0,1-3.12-9.5v-.29a15.84,15.84,0,0,1,4.6-11.26A14,14,0,0,1,594.92,1433.88Zm-9.69,12.27h19.25a10.89,10.89,0,0,0-4.57-6.22,9.26,9.26,0,0,0-5.12-1.51q-4.69,0-8,4.38A11.15,11.15,0,0,0,585.23,1446.15Zm45-12.3a11.86,11.86,0,0,1,10.1,5.21l.1.2h0v-5l.07-.1h4.34l.1.1v30.41l-.1.1H640.5l-.07-.1v-5h0q-3.48,5.34-10.49,5.34v0l-.07,0a14.54,14.54,0,0,1-10.94-5,15.79,15.79,0,0,1-3.93-10.37v-.38a15.61,15.61,0,0,1,4.35-10.82A14.78,14.78,0,0,1,630.2,1433.85Zm-10.72,15.48v.16a11.07,11.07,0,0,0,4.31,8.92,9.62,9.62,0,0,0,6,2.09q7,0,9.66-6.86a11.87,11.87,0,0,0,.71-4v-.7a11.72,11.72,0,0,0-1.77-5.86,9.26,9.26,0,0,0-8.08-4.67q-6.83,0-9.92,6.44A11.78,11.78,0,0,0,619.48,1449.33ZM667.54,1434a11.45,11.45,0,0,1,6,1.51l-1,4.79h0a10.67,10.67,0,0,0-5.28-1.67,7.61,7.61,0,0,0-7.53,5,6.47,6.47,0,0,0-.48,2.44v18.67l-.1.1h-4.31l-.1-.1v-30l.1-.09h4.31l.1.09v2.61h0a7.58,7.58,0,0,1,4.15-2.77A16.85,16.85,0,0,1,667.54,1434Zm25.23.22h.55q9,0,12.17,6.92a11.91,11.91,0,0,1,.8,4.32v19.24l-.09.1h-4.35l-.06-.1v-19.24q0-4.74-4.86-6.31a15,15,0,0,0-4.41-.42c-2.69,0-4.69.56-6,1.67q-2.41,1.58-2.42,5.31v19l-.09.1h-4.32l-.09-.1v-29.93l.09-.1H684l.09.1v3A11.82,11.82,0,0,1,692.77,1434.17Zm40.79-16.54H738l0,0v16.51h8.31l0,0v4.48l0,0h-8.31v17.67a4.69,4.69,0,0,0,.68,2.45,3.46,3.46,0,0,0,1.83,1.25,3.06,3.06,0,0,0,.9.16h.2a10,10,0,0,0,3.35-.83l.38-.2c1.1,2.41,1.71,3.78,1.84,4.12a12.22,12.22,0,0,1-1.84.74,12.86,12.86,0,0,1-3.54.68h-.55a7.71,7.71,0,0,1-3.6-1,7.41,7.41,0,0,1-3.54-4,10.5,10.5,0,0,1-.61-3.64v-17.38H728.5l0,0v-4.48l0,0h5.06ZM766.65,1434h.83a14.16,14.16,0,0,1,9.4,3.83,16,16,0,0,1-.26,23.62,14.37,14.37,0,0,1-19.63-.48,15.73,15.73,0,0,1-4.76-11.27v-.38a15.63,15.63,0,0,1,4.73-11.2A14.19,14.19,0,0,1,766.65,1434Zm-9.92,15.51v.16a11.24,11.24,0,0,0,3.41,8.05,10,10,0,0,0,6.92,2.86q4.86,0,8.31-4.44a12,12,0,0,0,2.06-6.63,11.27,11.27,0,0,0-3.67-8.4,9.71,9.71,0,0,0-6.5-2.61h-.49a10,10,0,0,0-7.14,3.32A11.5,11.5,0,0,0,756.73,1449.46Zm44-15.51a12.55,12.55,0,0,1,7.18,2.22,6.53,6.53,0,0,1,1.1-1,6,6,0,0,1,2.15-1,6.23,6.23,0,0,1,1.61-.22h1l0,0v4.44l0,0H813a2.06,2.06,0,0,0-1.55.58,1,1,0,0,0-.26.58,10.23,10.23,0,0,1,1,2.19,11.22,11.22,0,0,1,.58,3.54,11,11,0,0,1-3.15,7.73,13.31,13.31,0,0,1-4.12,2.76,12.4,12.4,0,0,1-4.64.91h-.19a12.61,12.61,0,0,1-5.38-1.23,2.49,2.49,0,0,0-.61,1.58c0,.51.16.84.49,1,.85.61,2.83.91,5.92.91l2.25,0q6.28,0,9.72,2.93a11.82,11.82,0,0,1,1.26,1.36,8.39,8.39,0,0,1,1.57,4.86,8.9,8.9,0,0,1-1.67,5,10.12,10.12,0,0,1-1.48,1.67,13.05,13.05,0,0,1-3.83,2.48,19.6,19.6,0,0,1-2.58.87,18.67,18.67,0,0,1-3.89.48h-1.1a19,19,0,0,1-5.88-1,18,18,0,0,1-2.71-1.29A15,15,0,0,1,791,1475a13.88,13.88,0,0,1-1.26-1.39,8.55,8.55,0,0,1-1.77-5v-.35a9.23,9.23,0,0,1,2.1-5.44,8.49,8.49,0,0,1,1.57-1.52l.2-.16a5.26,5.26,0,0,1-1.61-4v-.1a6.78,6.78,0,0,1,1.41-4.12.15.15,0,0,0,.07-.12,12.14,12.14,0,0,1-1.26-1.64,11.16,11.16,0,0,1-1.64-5.8,11,11,0,0,1,3-7.5,11.41,11.41,0,0,1,1.45-1.35,13.67,13.67,0,0,1,2.09-1.29A12.7,12.7,0,0,1,800.73,1434Zm-8.3,34.44v.06a4.79,4.79,0,0,0,2.25,3.77,12.74,12.74,0,0,0,7.21,1.9,12.33,12.33,0,0,0,6.86-1.87,7.07,7.07,0,0,0,1.25-1.09,4.61,4.61,0,0,0,1.39-3.06v-.1a3.68,3.68,0,0,0-1.26-2.7,6.59,6.59,0,0,0-2.54-1.35,15,15,0,0,0-3.83-.52H800.7a28.52,28.52,0,0,1-4.28-.29,14.51,14.51,0,0,0-2.06,1.61A5.57,5.57,0,0,0,792.43,1468.39Zm.84-23.18v.29a6.44,6.44,0,0,0,1.48,4,7.48,7.48,0,0,0,1.19,1.16,7.93,7.93,0,0,0,4.86,1.61,7.81,7.81,0,0,0,5.21-2,6.48,6.48,0,0,0,.23-9.63,7.84,7.84,0,0,0-2.26-1.51,8,8,0,0,0-3.15-.68h-.16a8,8,0,0,0-4.09,1.16,7.82,7.82,0,0,0-1.48,1.22,6.65,6.65,0,0,0-1.29,1.94A6.13,6.13,0,0,0,793.27,1445.21Zm43.19-11.33q6.63,0,11.37,5.86a16,16,0,0,1,3.12,9v.39c0,1-.07,1.48-.19,1.48H826.32a11.4,11.4,0,0,0,1.29,4.34,10.48,10.48,0,0,0,5.57,5,10.25,10.25,0,0,0,3.19.58,9.68,9.68,0,0,0,7.63-3.83,11.69,11.69,0,0,0,1.48-2.48h.06c1.74.69,3.1,1.27,4.09,1.74a15,15,0,0,1-3.16,4.73A14,14,0,0,1,836.4,1465q-6.74,0-11.49-5.89a16.32,16.32,0,0,1-3.12-9.5v-.29a15.8,15.8,0,0,1,4.6-11.26A14,14,0,0,1,836.46,1433.88Zm-9.68,12.27H846a10.84,10.84,0,0,0-4.57-6.22,9.24,9.24,0,0,0-5.12-1.51q-4.7,0-8,4.38A11.13,11.13,0,0,0,826.78,1446.15Zm32.92-28.52h4.48l0,0v16.51h8.3l0,0v4.48l0,0h-8.3v17.67a4.69,4.69,0,0,0,.68,2.45,3.46,3.46,0,0,0,1.83,1.25,3,3,0,0,0,.9.16h.19a10,10,0,0,0,3.35-.83l.39-.2c1.09,2.41,1.7,3.78,1.83,4.12a12,12,0,0,1-1.83.74,12.86,12.86,0,0,1-3.54.68h-.55a7.67,7.67,0,0,1-3.6-1,7.41,7.41,0,0,1-3.54-4,10.5,10.5,0,0,1-.62-3.64v-17.38h-5.05l0,0v-4.48l0,0h5.05Zm20.8,0h4.31l.1.09v19.93a12.24,12.24,0,0,1,8.88-3.54q9.4,0,12.46,6.79a11.35,11.35,0,0,1,.87,4.47v19.28l-.07.1h-4.34l-.1-.1v-19.24c0-3.55-2-5.73-5.89-6.57a11.12,11.12,0,0,0-2.41-.19H893q-5.41,0-7.53,3.76a9,9,0,0,0-.58,3.28v19l-.1.1H880.5l-.1-.1v-46.93Zm48.22,16.25q6.63,0,11.36,5.86a16,16,0,0,1,3.12,9v.39c0,1-.06,1.48-.19,1.48H918.58a11.4,11.4,0,0,0,1.29,4.34,10.43,10.43,0,0,0,5.56,5,10.3,10.3,0,0,0,3.19.58,9.68,9.68,0,0,0,7.63-3.83,11.69,11.69,0,0,0,1.48-2.48h.06c1.74.69,3.1,1.27,4.09,1.74a14.9,14.9,0,0,1-3.15,4.73,14,14,0,0,1-10.08,4.35q-6.72,0-11.49-5.89a16.32,16.32,0,0,1-3.12-9.5v-.29a15.8,15.8,0,0,1,4.6-11.26A14,14,0,0,1,928.72,1433.88ZM919,1446.15h19.25a10.89,10.89,0,0,0-4.57-6.22,9.28,9.28,0,0,0-5.12-1.51q-4.71,0-8,4.38A11.38,11.38,0,0,0,919,1446.15Zm44.55-12.2a11.45,11.45,0,0,1,6,1.51l-1,4.79h0a10.67,10.67,0,0,0-5.27-1.67,7.62,7.62,0,0,0-7.54,5,6.47,6.47,0,0,0-.48,2.44v18.67l-.1.1h-4.31l-.1-.1v-30l.1-.09h4.31l.1.09v2.61h0a7.58,7.58,0,0,1,4.15-2.77A16.91,16.91,0,0,1,963.58,1434Zm35.21,24.36h.07a3.18,3.18,0,0,1,2.41,1.13,3.15,3.15,0,0,1,.77,2v.2a3.09,3.09,0,0,1-1.19,2.41,3.18,3.18,0,0,1-2.06.74,3.25,3.25,0,0,1-2.22-.9,3.19,3.19,0,0,1-1-2.19v-.26a3.24,3.24,0,0,1,3.18-3.09ZM996,1417.63h5.73l0,0-.64,36.63h-4.51l-.64-36.63Z"/><path d="M47.16,1385.76a52.13,52.13,0,0,1-18.73-3.3,44.1,44.1,0,0,1-15-9.39,43.65,43.65,0,0,1-9.89-14.31,47.64,47.64,0,0,1,0-36.09,43.22,43.22,0,0,1,10-14.31A44.7,44.7,0,0,1,28.56,1299a52,52,0,0,1,18.72-3.3,52,52,0,0,1,20.53,3.92,39.76,39.76,0,0,1,15.43,11.51l-13.06,12a29.66,29.66,0,0,0-9.89-7.72,27.85,27.85,0,0,0-12-2.61,29.69,29.69,0,0,0-11.2,2,25.93,25.93,0,0,0-14.62,14.62,32.31,32.31,0,0,0,0,22.65,25.93,25.93,0,0,0,14.62,14.62,29.69,29.69,0,0,0,11.2,2,27.33,27.33,0,0,0,12-2.67,30.51,30.51,0,0,0,9.89-7.78l13.06,11.94a40.42,40.42,0,0,1-15.43,11.58A51.6,51.6,0,0,1,47.16,1385.76Zm79-.5a42.65,42.65,0,0,1-20-4.48,33.08,33.08,0,0,1-13.32-12.26,33.44,33.44,0,0,1-4.73-17.73A34.84,34.84,0,0,1,92.64,1333a31.87,31.87,0,0,1,12.69-12.26,37.92,37.92,0,0,1,18.35-4.41,37,37,0,0,1,17.73,4.23,31.78,31.78,0,0,1,12.51,11.94q4.59,7.73,4.6,18.54,0,1.13-.12,2.55c-.09,1-.17,1.85-.25,2.68H103.77v-11.33h44.17l-7.59,3.36a17.73,17.73,0,0,0-2-9.08,15.42,15.42,0,0,0-5.85-6,17,17,0,0,0-8.71-2.18,17.34,17.34,0,0,0-8.77,2.18,15.2,15.2,0,0,0-5.91,6.09,19.28,19.28,0,0,0-2.11,9.27v3a18.29,18.29,0,0,0,2.49,9.71,16.35,16.35,0,0,0,6.84,6.28,23.17,23.17,0,0,0,10.45,2.18,24.81,24.81,0,0,0,9.27-1.62,23,23,0,0,0,7.4-4.85l10.33,11.19a30.11,30.11,0,0,1-11.57,8A42.77,42.77,0,0,1,126.17,1385.26Zm45.29-1v-66.94H190v19l-2.61-5.6A21.48,21.48,0,0,1,197,1320q6.59-3.68,16.05-3.67v18a19.87,19.87,0,0,0-2.18-.37,16.12,16.12,0,0,0-2.05-.13q-8.22,0-13.07,4.61t-4.85,14.18v31.6ZM219,1333.75v-14.93H265.4v14.93Zm35.34,51.51q-11.82,0-18.42-6t-6.59-18v-58.73h19.53v58.35a9.4,9.4,0,0,0,2.18,6.6,7.65,7.65,0,0,0,5.91,2.36,12.7,12.7,0,0,0,8-2.49L270,1381a19.87,19.87,0,0,1-7,3.17A34.8,34.8,0,0,1,254.33,1385.26Zm23-28.25v-15.55h35.21V1357Zm71.92,11.08h47.4v16.17H329.23v-87.1h65.83v16.18H349.27Zm-1.5-36h41.94v15.8H347.77Zm91.83,53.13a34,34,0,0,1-17.05-4.29,31,31,0,0,1-11.94-12,40,40,0,0,1,0-36.33,31,31,0,0,1,11.94-12,34,34,0,0,1,17.05-4.29,28.66,28.66,0,0,1,14.81,3.73,24.57,24.57,0,0,1,9.83,11.32q3.48,7.59,3.48,19.41t-3.36,19.41a23.53,23.53,0,0,1-9.64,11.39A29.45,29.45,0,0,1,439.6,1385.26Zm3.23-15.93a17.47,17.47,0,0,0,8.72-2.17,15.86,15.86,0,0,0,6.15-6.41,20.47,20.47,0,0,0,2.31-10,20,20,0,0,0-2.31-10,16,16,0,0,0-6.15-6.28,17.47,17.47,0,0,0-8.72-2.18,17.16,17.16,0,0,0-8.58,2.18,16,16,0,0,0-6.16,6.28,20,20,0,0,0-2.3,10,20.47,20.47,0,0,0,2.3,10,15.82,15.82,0,0,0,6.16,6.41A17.15,17.15,0,0,0,442.83,1369.33Zm17.67,14.93v-13.68l.38-19.91-1.25-19.79v-38.94H479v92.32Zm61.59,0,38.7-87.1H580.7l39.07,87.1H598.62l-32-76.89h8.09l-32,76.89Zm19.54-18.66,5.1-15.3h45l5.23,15.3Zm117.58,19.66a40.63,40.63,0,0,1-19.22-4.42A34.51,34.51,0,0,1,626.8,1333,34,34,0,0,1,640,1320.81a40.18,40.18,0,0,1,19.22-4.48,37.32,37.32,0,0,1,18.48,4.41,25.71,25.71,0,0,1,11.39,12.51l-14.94,8.21a18,18,0,0,0-6.59-6.9,16.93,16.93,0,0,0-8.46-2.18,18.15,18.15,0,0,0-8.84,2.18,16.15,16.15,0,0,0-6.34,6.28,19.62,19.62,0,0,0-2.37,10,20,20,0,0,0,2.37,10,16.07,16.07,0,0,0,6.34,6.35,18.14,18.14,0,0,0,8.84,2.17,16.92,16.92,0,0,0,8.46-2.17,17.81,17.81,0,0,0,6.59-7l14.94,8.21a26.09,26.09,0,0,1-11.39,12.44A36.81,36.81,0,0,1,659.21,1385.26Zm61.84,0a30.51,30.51,0,0,1-13.31-2.68,20.82,20.82,0,0,1-8.65-7.27A18.34,18.34,0,0,1,696,1365a18.77,18.77,0,0,1,2.93-10.39c1.94-3,5-5.37,9.27-7s9.78-2.49,16.67-2.49h17.67v11.2H726.9c-4.56,0-7.7.74-9.39,2.24a7.12,7.12,0,0,0-2.56,5.6,7,7,0,0,0,2.93,5.91,13,13,0,0,0,7.9,2.17,17.66,17.66,0,0,0,8.9-2.23,12.27,12.27,0,0,0,5.53-6.85l3,9.08a17.63,17.63,0,0,1-7.71,9.65Q729.88,1385.26,721.05,1385.26Zm20.41-1V1371.2l-1.25-2.86v-23.4q0-6.21-3.79-9.7t-11.64-3.48a33.78,33.78,0,0,0-10.51,1.68,29.48,29.48,0,0,0-8.9,4.54l-6.84-13.57a39.57,39.57,0,0,1,13.19-6,60.64,60.64,0,0,1,15.68-2.05q15.3,0,23.76,7.21t8.46,22.52v38.2Zm64.95,1a34,34,0,0,1-17-4.29,31,31,0,0,1-11.94-12,40,40,0,0,1,0-36.33,31,31,0,0,1,11.94-12,34,34,0,0,1,17-4.29,28.69,28.69,0,0,1,14.81,3.73,24.5,24.5,0,0,1,9.82,11.32q3.5,7.59,3.49,19.41t-3.36,19.41a23.58,23.58,0,0,1-9.64,11.39A29.45,29.45,0,0,1,806.41,1385.26Zm3.23-15.93a17.4,17.4,0,0,0,8.71-2.17,15.82,15.82,0,0,0,6.16-6.41,20.47,20.47,0,0,0,2.3-10,20,20,0,0,0-2.3-10,16,16,0,0,0-6.16-6.28,17.41,17.41,0,0,0-8.71-2.18,17.16,17.16,0,0,0-8.58,2.18,16,16,0,0,0-6.16,6.28,20,20,0,0,0-2.3,10,20.47,20.47,0,0,0,2.3,10,15.82,15.82,0,0,0,6.16,6.41A17.15,17.15,0,0,0,809.64,1369.33Zm17.67,14.93v-13.68l.37-19.91-1.24-19.79v-38.94h19.41v92.32Zm69.68,1a42.65,42.65,0,0,1-20-4.48,33.08,33.08,0,0,1-13.32-12.26,33.44,33.44,0,0,1-4.73-17.73,34.84,34.84,0,0,1,4.55-17.79,31.87,31.87,0,0,1,12.69-12.26,37.92,37.92,0,0,1,18.35-4.41,37,37,0,0,1,17.73,4.23,31.78,31.78,0,0,1,12.51,11.94q4.59,7.73,4.6,18.54,0,1.13-.12,2.55c-.09,1-.17,1.85-.25,2.68H874.59v-11.33h44.17l-7.59,3.36a17.63,17.63,0,0,0-2-9.08,15.47,15.47,0,0,0-5.84-6,17,17,0,0,0-8.71-2.18,17.36,17.36,0,0,0-8.78,2.18,15.2,15.2,0,0,0-5.91,6.09,19.28,19.28,0,0,0-2.11,9.27v3a18.39,18.39,0,0,0,2.49,9.71,16.35,16.35,0,0,0,6.84,6.28,23.17,23.17,0,0,0,10.45,2.18,24.77,24.77,0,0,0,9.27-1.62,22.85,22.85,0,0,0,7.4-4.85l10.33,11.19a30,30,0,0,1-11.57,8A42.77,42.77,0,0,1,897,1385.26Zm131-68.93a30.31,30.31,0,0,1,14.12,3.17,22.46,22.46,0,0,1,9.65,9.71q3.48,6.52,3.48,16.73v38.32h-19.41v-35.33q0-8.09-3.3-12c-2.2-2.57-5.28-3.86-9.27-3.86a15.27,15.27,0,0,0-7.71,1.93,12.66,12.66,0,0,0-5.16,5.73,23.06,23.06,0,0,0-1.81,9.89v33.59H989.19v-35.33q0-8.09-3.3-12t-9.52-3.86a15,15,0,0,0-7.59,1.93,13,13,0,0,0-5.22,5.73,22.42,22.42,0,0,0-1.87,9.89v33.59H942.28v-66.94h18.54v18.17l-3.48-5.23a23.17,23.17,0,0,1,9.83-10.39,29.79,29.79,0,0,1,14.55-3.54A28.41,28.41,0,0,1,997.9,1321q7,4.66,9.21,14.25l-6.85-1.87A27.37,27.37,0,0,1,1011,1321,31.06,31.06,0,0,1,1028,1316.33Zm54.5-8.34a12.49,12.49,0,0,1-8.83-3.11,10.54,10.54,0,0,1,0-15.43,12.49,12.49,0,0,1,8.83-3.11,13.06,13.06,0,0,1,8.77,2.92,9.46,9.46,0,0,1,3.43,7.53,10.57,10.57,0,0,1-3.36,8A12.38,12.38,0,0,1,1082.51,1308Zm-9.7,76.27v-66.94h19.41v66.94Zm58.1,1a30.51,30.51,0,0,1-13.31-2.68,20.82,20.82,0,0,1-8.65-7.27,18.34,18.34,0,0,1-3-10.33,18.77,18.77,0,0,1,2.93-10.39c1.94-3,5-5.37,9.27-7s9.78-2.49,16.67-2.49h17.67v11.2h-15.68c-4.56,0-7.69.74-9.39,2.24a7.14,7.14,0,0,0-2.55,5.6,7,7,0,0,0,2.92,5.91,13,13,0,0,0,7.9,2.17,17.66,17.66,0,0,0,8.9-2.23,12.23,12.23,0,0,0,5.53-6.85l3,9.08a17.63,17.63,0,0,1-7.71,9.65Q1139.74,1385.26,1130.91,1385.26Zm20.41-1V1371.2l-1.25-2.86v-23.4q0-6.21-3.79-9.7t-11.63-3.48a33.79,33.79,0,0,0-10.52,1.68,29.3,29.3,0,0,0-8.89,4.54l-6.85-13.57a39.57,39.57,0,0,1,13.19-6,60.64,60.64,0,0,1,15.68-2.05q15.3,0,23.76,7.21t8.47,22.52v38.2Z"/></g></g></svg>