<svg id="Layer_1" data-name="Layer 1" xmlns="http://www.w3.org/2000/svg" xmlns:xlink="http://www.w3.org/1999/xlink" viewBox="0 0 1170.16 1479.73"><defs><style>.cls-1{fill:url(#linear-gradient);}.cls-2{fill:url(#linear-gradient-2);}.cls-3{fill:url(#linear-gradient-3);}.cls-4{fill:url(#linear-gradient-4);}.cls-5{fill:#114e81;}</style><linearGradient id="linear-gradient" x1="266.87" y1="247.33" x2="552.5" y2="82.43" gradientUnits="userSpaceOnUse"><stop offset="0" stop-color="#1a335e"/><stop offset="1" stop-color="#1263a1"/></linearGradient><linearGradient id="linear-gradient-2" x1="700.71" y1="341.28" x2="921.15" y2="214.01" gradientUnits="userSpaceOnUse"><stop offset="0" stop-color="#3a94d1"/><stop offset="1" stop-color="#5ccaea"/></linearGradient><linearGradient id="linear-gradient-3" x1="-14.29" y1="543.6" x2="732.44" y2="974.72" gradientUnits="userSpaceOnUse"><stop offset="0" stop-color="#5ccaea"/><stop offset="1" stop-color="#3a94d1"/></linearGradient><linearGradient id="linear-gradient-4" x1="485.48" y1="953.68" x2="1160.5" y2="563.96" xlink:href="#linear-gradient"/></defs><g id="lockup_color"><circle class="cls-1" cx="409.69" cy="164.88" r="164.88"/><circle class="cls-2" cx="810.93" cy="277.64" r="127.25"/><path class="cls-3" d="M570.42,540.2,569,1257.84,451.73,1129.21a116.7,116.7,0,0,0-37-27.16L157,982.16a83.69,83.69,0,0,1-48.38-75.87V340.23a35.19,35.19,0,0,1,50-31.9l375.2,174.52A63.26,63.26,0,0,1,570.42,540.2Z"/><path class="cls-4" d="M612.57,614.68l0,559.1,118.33-134.14a116.63,116.63,0,0,1,38.25-28.58L1026,891.59a83.67,83.67,0,0,0,48.38-75.87V424.29a35.19,35.19,0,0,0-50-31.9L640.46,570.94A48.25,48.25,0,0,0,612.57,614.68Z"/><g id="wordmark"><path class="cls-5" d="M236.54,1418.67h.38q8.19,0,14.8,6.67a23,23,0,0,1,3.64,5.28q-3.87,2-4,2a22.68,22.68,0,0,0-2.19-3.35q-5.38-6.09-12.34-6.09h-.2q-7.27,0-12.66,6.51a20.34,20.34,0,0,0-4.19,12.4v.33a20,20,0,0,0,5.45,13.85,15.89,15.89,0,0,0,11.57,5.06q7.11,0,12.53-6.28a26.56,26.56,0,0,0,2.1-3.29l4,2.06a22.44,22.44,0,0,1-3.9,5.61,20.54,20.54,0,0,1-14.82,6.41q-8.86,0-15.63-7.41a24.93,24.93,0,0,1-5.77-16v-.33a24.38,24.38,0,0,1,6.77-17Q228.51,1418.66,236.54,1418.67ZM274.85,1435h.84a14.2,14.2,0,0,1,9.41,3.84,16.07,16.07,0,0,1-.26,23.65,14.4,14.4,0,0,1-19.65-.48,15.78,15.78,0,0,1-4.77-11.28v-.39a15.69,15.69,0,0,1,4.73-11.21A14.26,14.26,0,0,1,274.85,1435Zm-9.92,15.54v.16a11.24,11.24,0,0,0,3.41,8,10,10,0,0,0,6.93,2.87q4.88,0,8.32-4.45a12,12,0,0,0,2.06-6.63,11.31,11.31,0,0,0-3.67-8.41,9.73,9.73,0,0,0-6.51-2.61H275a10,10,0,0,0-7.15,3.31A11.5,11.5,0,0,0,264.93,1450.54Zm46.27-15.31h.55q7.15,0,10.73,4.41,3.56-4.41,10.6-4.41H334q8.67,0,11.92,6.32a11,11,0,0,1,1,4.64v19.56l-.06.09h-4.35l-.1-.09v-19.5q0-3.87-3.87-5.74a11.65,11.65,0,0,0-4.38-.77h-1.1c-4,0-6.66,1.37-7.86,4.09a7.81,7.81,0,0,0-.48,3v18.92l-.1.09h-4.35l-.06-.09v-19.27c0-3.16-1.63-5.27-4.87-6.32a15,15,0,0,0-4.41-.42q-4,0-6,1.68-2.42,1.57-2.42,5.31v19l-.09.09h-4.32l-.1-.09v-30l.1-.1h4.32l.09.1v3A11.86,11.86,0,0,1,311.2,1435.23Zm57.36-.29q6.65,0,11.38,5.86a16.1,16.1,0,0,1,3.13,9v.38c0,1-.07,1.48-.2,1.48H358.41a11.38,11.38,0,0,0,1.29,4.35,10.49,10.49,0,0,0,5.58,5,10.25,10.25,0,0,0,3.19.58,9.73,9.73,0,0,0,7.64-3.83,11.94,11.94,0,0,0,1.48-2.48h.06c1.74.68,3.11,1.26,4.09,1.74a14.9,14.9,0,0,1-3.15,4.73,14.07,14.07,0,0,1-10.09,4.35q-6.74,0-11.5-5.89a16.31,16.31,0,0,1-3.13-9.51v-.29a15.84,15.84,0,0,1,4.61-11.28A14,14,0,0,1,368.56,1434.94Zm-9.7,12.28h19.28a10.9,10.9,0,0,0-4.58-6.22,9.29,9.29,0,0,0-5.12-1.52q-4.71,0-8,4.39A11.4,11.4,0,0,0,358.86,1447.22Zm34,12.4a3.13,3.13,0,0,1,2.61,1.42,4.26,4.26,0,0,1,.58,2.35c0,2.65-1.57,5.36-4.7,8.16a11.46,11.46,0,0,1-1.68,1.35l-1.29-1.67q3.25-3,3.26-5.39a3,3,0,0,1-1.68-1.58,2.74,2.74,0,0,1-.39-1.45,3.19,3.19,0,0,1,1.45-2.64A3.24,3.24,0,0,1,392.83,1459.62Zm30.71-40.95H428l0,0v42.63h20.21v4.51H423.54l0,0V1418.7Zm42.12,16.27c4.42,0,8.22,2,11.37,5.86a16,16,0,0,1,3.13,9v.38c0,1-.06,1.48-.19,1.48H455.51a11.38,11.38,0,0,0,1.29,4.35,10.47,10.47,0,0,0,5.57,5,10.3,10.3,0,0,0,3.19.58,9.71,9.71,0,0,0,7.64-3.83,11.5,11.5,0,0,0,1.48-2.48h.07c1.74.68,3.1,1.26,4.09,1.74a15,15,0,0,1-3.16,4.73,14.05,14.05,0,0,1-10.09,4.35q-6.73,0-11.5-5.89a16.38,16.38,0,0,1-3.13-9.51v-.29a15.84,15.84,0,0,1,4.61-11.28A14,14,0,0,1,465.66,1434.94Zm-9.7,12.28h19.27a10.86,10.86,0,0,0-4.58-6.22,9.25,9.25,0,0,0-5.12-1.52q-4.71,0-8,4.39A11.15,11.15,0,0,0,456,1447.22Zm33-28.55h4.48l0,0v16.53h8.31l0,0v4.48l0,0h-8.31v17.69a4.65,4.65,0,0,0,.67,2.45,3.54,3.54,0,0,0,1.84,1.26,3,3,0,0,0,.9.16h.2a10.11,10.11,0,0,0,3.35-.84l.39-.19c1.09,2.41,1.7,3.78,1.83,4.13a14.56,14.56,0,0,1-1.83.74,13.28,13.28,0,0,1-3.55.67h-.55a7.74,7.74,0,0,1-3.61-1,7.45,7.45,0,0,1-3.54-4,10.51,10.51,0,0,1-.61-3.65v-17.4h-5.06l0,0v-4.48l0,0h5.06Zm19.94,11.73v-12.89h4.51v12.89Zm24.37,4.35h.45a13,13,0,0,1,6.25,1.58,11.21,11.21,0,0,1,2.06,1.38,12.33,12.33,0,0,1,1.58,1.61,3.23,3.23,0,0,1,.48.74q-2.92,1.68-3.86,2.29h0a6.21,6.21,0,0,0-1.74-1.67,9.71,9.71,0,0,0-10.5.25,3.76,3.76,0,0,0-1.45,2.84,2,2,0,0,0,.93,1.77,3.66,3.66,0,0,0,1,.61,22.66,22.66,0,0,0,4.84,1.55l4.09.81a13.26,13.26,0,0,1,2.64.9,11.61,11.61,0,0,1,2,1.19,11.28,11.28,0,0,1,1.19,1.13,7.52,7.52,0,0,1,1.93,5v.19a8.42,8.42,0,0,1-2.09,5.42,11.39,11.39,0,0,1-1.32,1.26,14.62,14.62,0,0,1-1.87,1.16,14.94,14.94,0,0,1-6.35,1.45H533a14.47,14.47,0,0,1-6.86-1.74,12.75,12.75,0,0,1-4.9-4.93,19.15,19.15,0,0,1,1.87-1.07l2.06-1.13a8.42,8.42,0,0,0,4.32,3.71,10.85,10.85,0,0,0,3.74.64,9.9,9.9,0,0,0,5.09-1.32,5.54,5.54,0,0,0,1.16-.9,4,4,0,0,0,1.06-2.64q0-2.13-2.67-3.38a10.29,10.29,0,0,0-1.87-.58,50.63,50.63,0,0,1-8.09-2q-6-2.19-6-7.06v-.1a8,8,0,0,1,2.22-5.41,8.59,8.59,0,0,1,1.48-1.29,11.21,11.21,0,0,1,3.35-1.61A14.53,14.53,0,0,1,533.24,1434.75Zm35.83-16.08h4.45l0,0v47.11l0,0h-4.45l0,0V1418.7Zm26.23,16.27q6.65,0,11.38,5.86a16.08,16.08,0,0,1,3.12,9v.38c0,1-.06,1.48-.19,1.48H585.15a11.38,11.38,0,0,0,1.29,4.35,10.5,10.5,0,0,0,5.57,5,10.35,10.35,0,0,0,3.2.58,9.71,9.71,0,0,0,7.63-3.83,11.5,11.5,0,0,0,1.48-2.48h.07c1.74.68,3.1,1.26,4.09,1.74a14.79,14.79,0,0,1-3.16,4.73,14,14,0,0,1-10.08,4.35q-6.74,0-11.51-5.89a16.37,16.37,0,0,1-3.12-9.51v-.29a15.83,15.83,0,0,1,4.6-11.28A14,14,0,0,1,595.3,1434.94Zm-9.7,12.28h19.27a10.89,10.89,0,0,0-4.57-6.22,9.3,9.3,0,0,0-5.13-1.52q-4.7,0-8,4.39A11.4,11.4,0,0,0,585.6,1447.22Zm45-12.31a11.88,11.88,0,0,1,10.12,5.22l.1.19h0v-5l.06-.09h4.35l.1.09v30.46l-.1.09h-4.35l-.06-.09v-5h0q-3.5,5.35-10.51,5.35v0l-.07,0a14.56,14.56,0,0,1-11-5,15.83,15.83,0,0,1-3.93-10.38v-.39a15.61,15.61,0,0,1,4.35-10.82A14.79,14.79,0,0,1,630.62,1434.91Zm-10.73,15.5v.16a11.09,11.09,0,0,0,4.32,8.93,9.62,9.62,0,0,0,6,2.09q7,0,9.67-6.86a12,12,0,0,0,.71-4V1450a11.72,11.72,0,0,0-1.77-5.86,9.25,9.25,0,0,0-8.09-4.68c-4.56,0-7.86,2.15-9.93,6.45A11.83,11.83,0,0,0,619.89,1450.41ZM668,1435a11.53,11.53,0,0,1,6,1.52l-1,4.8h0a10.59,10.59,0,0,0-5.28-1.68,7.63,7.63,0,0,0-7.54,5,6.48,6.48,0,0,0-.48,2.45v18.69l-.1.09h-4.32l-.1-.09v-30l.1-.09h4.32l.1.09v2.61h0a7.55,7.55,0,0,1,4.15-2.77A16.94,16.94,0,0,1,668,1435Zm25.27.23h.54q9.06,0,12.19,6.93a11.87,11.87,0,0,1,.8,4.32v19.27l-.1.09h-4.35l-.06-.09v-19.27q0-4.74-4.87-6.32a15,15,0,0,0-4.41-.42q-4,0-6,1.68-2.41,1.57-2.41,5.31v19l-.1.09h-4.32l-.1-.09v-30l.1-.1h4.32l.1.1v3A11.83,11.83,0,0,1,693.27,1435.23Zm40.83-16.56h4.48l0,0v16.53h8.31l0,0v4.48l0,0h-8.31v17.69a4.65,4.65,0,0,0,.67,2.45,3.54,3.54,0,0,0,1.84,1.26,3,3,0,0,0,.9.16h.2a10.11,10.11,0,0,0,3.35-.84l.38-.19c1.1,2.41,1.71,3.78,1.84,4.13a14.25,14.25,0,0,1-1.84.74,13.16,13.16,0,0,1-3.54.67h-.55a7.74,7.74,0,0,1-3.61-1,7.41,7.41,0,0,1-3.54-4,10.51,10.51,0,0,1-.61-3.65v-17.4H729l0,0v-4.48l0,0h5.06ZM767.22,1435h.84a14.2,14.2,0,0,1,9.41,3.84,16.07,16.07,0,0,1-.26,23.65,14.4,14.4,0,0,1-19.65-.48,15.78,15.78,0,0,1-4.77-11.28v-.39a15.69,15.69,0,0,1,4.73-11.21A14.26,14.26,0,0,1,767.22,1435Zm-9.92,15.54v.16a11.24,11.24,0,0,0,3.41,8,10,10,0,0,0,6.93,2.87q4.88,0,8.32-4.45a12,12,0,0,0,2.06-6.63,11.28,11.28,0,0,0-3.68-8.41,9.69,9.69,0,0,0-6.5-2.61h-.49a10,10,0,0,0-7.15,3.31A11.5,11.5,0,0,0,757.3,1450.54ZM801.35,1435a12.62,12.62,0,0,1,7.19,2.23,6.56,6.56,0,0,1,1.09-1,6,6,0,0,1,2.16-1,6.25,6.25,0,0,1,1.61-.23h1l0,0v4.44l0,0h-.81a2,2,0,0,0-1.54.58,1,1,0,0,0-.26.58,9.79,9.79,0,0,1,1,2.19,11.22,11.22,0,0,1,.58,3.54,11,11,0,0,1-3.16,7.74,12.06,12.06,0,0,1-2,1.61,12.89,12.89,0,0,1-2.16,1.16,12.59,12.59,0,0,1-4.64.9h-.2a12.64,12.64,0,0,1-5.38-1.23,2.46,2.46,0,0,0-.61,1.58c0,.52.16.84.48,1q1.29.9,5.93.9l2.26,0q6.28,0,9.73,2.93a11.82,11.82,0,0,1,1.26,1.36,8.41,8.41,0,0,1,1.58,4.86,8.92,8.92,0,0,1-1.68,5.06,10.51,10.51,0,0,1-1.48,1.68,13.81,13.81,0,0,1-1.87,1.45,12.62,12.62,0,0,1-2,1,23.64,23.64,0,0,1-2.57.87,18.91,18.91,0,0,1-3.9.48H802a18.88,18.88,0,0,1-5.9-1,17,17,0,0,1-2.7-1.28,15,15,0,0,1-1.81-1.36,13.5,13.5,0,0,1-1.25-1.38,8.58,8.58,0,0,1-1.78-5v-.36a9.23,9.23,0,0,1,2.1-5.44,8.22,8.22,0,0,1,1.58-1.52l.19-.16a5.3,5.3,0,0,1-1.61-4v-.1a6.76,6.76,0,0,1,1.42-4.13.17.17,0,0,0,.06-.12,12.42,12.42,0,0,1-1.26-1.65,11.13,11.13,0,0,1-1.64-5.8,11,11,0,0,1,3-7.51,11.41,11.41,0,0,1,1.45-1.35,14.5,14.5,0,0,1,2.09-1.29A12.72,12.72,0,0,1,801.35,1435ZM793,1469.49v.06a4.79,4.79,0,0,0,2.25,3.77,12.69,12.69,0,0,0,7.22,1.9,12.25,12.25,0,0,0,6.86-1.87,6.74,6.74,0,0,0,1.26-1.09,4.68,4.68,0,0,0,1.39-3.06v-.1a3.72,3.72,0,0,0-1.26-2.71,6.64,6.64,0,0,0-2.55-1.35,15,15,0,0,0-3.83-.52h-3.06a27.48,27.48,0,0,1-4.29-.29,14.51,14.51,0,0,0-2.06,1.61A5.61,5.61,0,0,0,793,1469.49Zm.83-23.21v.29a6.46,6.46,0,0,0,1.49,4,7.61,7.61,0,0,0,6,2.77,7.77,7.77,0,0,0,5.22-2,6.48,6.48,0,0,0,.23-9.63,7.82,7.82,0,0,0-5.41-2.19h-.17a7.89,7.89,0,0,0-4.09,1.16,7.45,7.45,0,0,0-1.48,1.22,6.75,6.75,0,0,0-1.29,1.93A6.06,6.06,0,0,0,793.87,1446.28Zm43.25-11.34q6.64,0,11.38,5.86a16.08,16.08,0,0,1,3.12,9v.38c0,1-.06,1.48-.19,1.48H827a11.38,11.38,0,0,0,1.29,4.35,10.47,10.47,0,0,0,5.57,5,10.3,10.3,0,0,0,3.19.58,9.71,9.71,0,0,0,7.64-3.83,11.5,11.5,0,0,0,1.48-2.48h.07c1.74.68,3.1,1.26,4.09,1.74a15,15,0,0,1-3.16,4.73,14.05,14.05,0,0,1-10.09,4.35q-6.74,0-11.5-5.89a16.38,16.38,0,0,1-3.13-9.51v-.29a15.84,15.84,0,0,1,4.61-11.28A14,14,0,0,1,837.12,1434.94Zm-9.7,12.28h19.27a10.86,10.86,0,0,0-4.58-6.22,9.25,9.25,0,0,0-5.12-1.52q-4.71,0-8,4.39A11.15,11.15,0,0,0,827.42,1447.22Zm33-28.55h4.48l0,0v16.53h8.31l0,0v4.48l0,0H864.9v17.69a4.65,4.65,0,0,0,.67,2.45,3.54,3.54,0,0,0,1.84,1.26,3,3,0,0,0,.9.16h.2a10.11,10.11,0,0,0,3.35-.84l.38-.19c1.1,2.41,1.71,3.78,1.84,4.13a14.25,14.25,0,0,1-1.84.74,13.16,13.16,0,0,1-3.54.67h-.55a7.74,7.74,0,0,1-3.61-1,7.41,7.41,0,0,1-3.54-4,10.51,10.51,0,0,1-.61-3.65v-17.4h-5.06l0,0v-4.48l0,0h5.06Zm20.81,0h4.32l.1.09v20a12.28,12.28,0,0,1,8.89-3.55q9.42,0,12.47,6.8a11.43,11.43,0,0,1,.87,4.48v19.31l-.06.09h-4.35l-.1-.09v-19.27q0-5.32-5.89-6.58a11.22,11.22,0,0,0-2.42-.19h-1.29q-5.41,0-7.54,3.77a9,9,0,0,0-.58,3.29v19l-.1.09H881.2l-.09-.09v-47Zm48.28,16.27q6.63,0,11.37,5.86a16,16,0,0,1,3.13,9v.38c0,1-.07,1.48-.19,1.48H919.33a11.38,11.38,0,0,0,1.29,4.35,10.43,10.43,0,0,0,5.57,5,10.25,10.25,0,0,0,3.19.58,9.73,9.73,0,0,0,7.64-3.83,11.94,11.94,0,0,0,1.48-2.48h.06c1.74.68,3.11,1.26,4.1,1.74a15.14,15.14,0,0,1-3.16,4.73,14.07,14.07,0,0,1-10.09,4.35q-6.74,0-11.5-5.89a16.31,16.31,0,0,1-3.13-9.51v-.29a15.84,15.84,0,0,1,4.61-11.28A14,14,0,0,1,929.48,1434.94Zm-9.7,12.28h19.27a10.86,10.86,0,0,0-4.58-6.22,9.27,9.27,0,0,0-5.12-1.52q-4.71,0-8,4.39A11.38,11.38,0,0,0,919.78,1447.22Zm44.6-12.22a11.49,11.49,0,0,1,6,1.52l-1,4.8h0a10.6,10.6,0,0,0-5.29-1.68,7.64,7.64,0,0,0-7.54,5,6.48,6.48,0,0,0-.48,2.45v18.69l-.1.09h-4.31l-.1-.09v-30l.1-.09h4.31l.1.09v2.61h0a7.57,7.57,0,0,1,4.16-2.77A16.88,16.88,0,0,1,964.38,1435Zm35.25,24.4h.07a3.15,3.15,0,0,1,2.41,1.13,3.1,3.1,0,0,1,.78,2v.2a3.28,3.28,0,0,1-3.26,3.15,3.22,3.22,0,0,1-2.22-.9,3.16,3.16,0,0,1-1-2.19v-.26a3.24,3.24,0,0,1,3.19-3.09Zm-2.83-40.73h5.73l0,0-.64,36.67h-4.51l-.65-36.67Z"/><path class="cls-5" d="M46.92,1386.76a52.2,52.2,0,0,1-18.75-3.3,43.56,43.56,0,0,1-24.91-23.73,47.74,47.74,0,0,1,0-36.13,43.33,43.33,0,0,1,10-14.32,44.84,44.84,0,0,1,15.08-9.41,52.4,52.4,0,0,1,18.74-3.3,51.94,51.94,0,0,1,20.56,3.93A39.92,39.92,0,0,1,83.05,1312L70,1324a29.5,29.5,0,0,0-9.91-7.72,27.7,27.7,0,0,0-12-2.62,29.74,29.74,0,0,0-11.21,2,26,26,0,0,0-14.64,14.64,32.36,32.36,0,0,0,0,22.67,25.92,25.92,0,0,0,14.64,14.64A29.74,29.74,0,0,0,48,1369.7a27.32,27.32,0,0,0,12-2.68,30.38,30.38,0,0,0,9.91-7.79l13.08,12a40.36,40.36,0,0,1-15.45,11.58A51.57,51.57,0,0,1,46.92,1386.76Zm79.1-.5a42.78,42.78,0,0,1-20.06-4.48,33.1,33.1,0,0,1-13.32-12.27,33.45,33.45,0,0,1-4.74-17.75,34.92,34.92,0,0,1,4.55-17.82,32,32,0,0,1,12.7-12.27,38,38,0,0,1,18.38-4.42,37,37,0,0,1,17.75,4.24,31.79,31.79,0,0,1,12.52,12q4.6,7.72,4.61,18.56c0,.74,0,1.6-.13,2.55s-.16,1.85-.25,2.68H103.6V1345.9h44.22l-7.6,3.37a17.8,17.8,0,0,0-2-9.1,15.54,15.54,0,0,0-5.86-6,17,17,0,0,0-8.72-2.18,17.36,17.36,0,0,0-8.78,2.18,15.31,15.31,0,0,0-5.92,6.1,19.32,19.32,0,0,0-2.11,9.28v3a18.4,18.4,0,0,0,2.49,9.72,16.39,16.39,0,0,0,6.85,6.29,23.08,23.08,0,0,0,10.46,2.18,24.83,24.83,0,0,0,9.28-1.62,23,23,0,0,0,7.42-4.86l10.33,11.22a30.18,30.18,0,0,1-11.58,8A42.84,42.84,0,0,1,126,1386.26Zm45.34-1v-67h18.56v19.06l-2.61-5.61a21.53,21.53,0,0,1,9.59-10.77q6.6-3.67,16.07-3.68v18.06c-.75-.16-1.48-.29-2.18-.37a18.31,18.31,0,0,0-2.06-.12q-8.22,0-13.08,4.61t-4.85,14.2v31.64ZM219,1334.69v-15h46.46v15Zm35.38,51.57q-11.84,0-18.44-6t-6.6-18v-58.8h19.55v58.43a9.4,9.4,0,0,0,2.18,6.6,7.66,7.66,0,0,0,5.92,2.37,12.68,12.68,0,0,0,8-2.49L270,1382a19.92,19.92,0,0,1-7,3.17A34.8,34.8,0,0,1,254.33,1386.26Zm23-28.27v-15.58h35.25V1358Zm72,11.08h47.46v16.2H329.31v-87.2h65.9v16.19H349.37Zm-1.49-36h42v15.82h-42Zm91.93,53.19a34.08,34.08,0,0,1-17.07-4.29,31.14,31.14,0,0,1-12-12,40.1,40.1,0,0,1,0-36.37,31,31,0,0,1,12-12,34,34,0,0,1,17.07-4.3,28.73,28.73,0,0,1,14.82,3.74,24.56,24.56,0,0,1,9.84,11.33q3.48,7.61,3.49,19.44t-3.36,19.43a23.64,23.64,0,0,1-9.66,11.4A29.49,29.49,0,0,1,439.81,1386.26Zm3.23-15.94a17.51,17.51,0,0,0,8.73-2.18,15.84,15.84,0,0,0,6.16-6.42,20.47,20.47,0,0,0,2.31-10,20.05,20.05,0,0,0-2.31-10,16.14,16.14,0,0,0-6.16-6.29,17.51,17.51,0,0,0-8.73-2.18,17.2,17.2,0,0,0-8.59,2.18,16.09,16.09,0,0,0-6.17,6.29,20.16,20.16,0,0,0-2.3,10,20.58,20.58,0,0,0,2.3,10,15.8,15.8,0,0,0,6.17,6.42A17.2,17.2,0,0,0,443,1370.32Zm17.69,15v-13.71l.38-19.93-1.25-19.8v-39h19.43v92.43Zm61.66,0,38.74-87.2h19.94l39.11,87.2H599l-32-77h8.1l-32,77ZM542,1366.58l5.11-15.32h45.09l5.23,15.32Zm117.72,19.68a40.72,40.72,0,0,1-19.25-4.42,34.55,34.55,0,0,1-13.2-47.9,34.1,34.1,0,0,1,13.2-12.2,40.28,40.28,0,0,1,19.25-4.49,37.4,37.4,0,0,1,18.5,4.42,25.69,25.69,0,0,1,11.39,12.52l-14.94,8.22a18.09,18.09,0,0,0-6.61-6.91,17,17,0,0,0-8.47-2.18,18.15,18.15,0,0,0-8.84,2.18,16.2,16.2,0,0,0-6.35,6.29,19.64,19.64,0,0,0-2.37,10,20,20,0,0,0,2.37,10,16,16,0,0,0,6.35,6.35,18.15,18.15,0,0,0,8.84,2.18,17,17,0,0,0,8.47-2.18,17.81,17.81,0,0,0,6.61-7l14.94,8.22a26,26,0,0,1-11.39,12.46A36.89,36.89,0,0,1,659.67,1386.26Zm61.91,0a30.6,30.6,0,0,1-13.33-2.68,20.81,20.81,0,0,1-8.66-7.28,18.27,18.27,0,0,1-3.05-10.34,18.72,18.72,0,0,1,2.93-10.4q2.92-4.55,9.28-7t16.69-2.49h17.69v11.21h-15.7q-6.85,0-9.4,2.24a7.14,7.14,0,0,0-2.56,5.61,7,7,0,0,0,2.93,5.91,12.91,12.91,0,0,0,7.91,2.18,17.6,17.6,0,0,0,8.91-2.24,12.25,12.25,0,0,0,5.54-6.85l3,9.09a17.66,17.66,0,0,1-7.72,9.66Q730.42,1386.26,721.58,1386.26Zm20.43-1v-13.08l-1.25-2.87V1345.9q0-6.23-3.8-9.71t-11.65-3.49a33.79,33.79,0,0,0-10.52,1.68,29.44,29.44,0,0,0-8.91,4.55L699,1325.35a39.35,39.35,0,0,1,13.2-6,60.8,60.8,0,0,1,15.7-2.06q15.32,0,23.79,7.23t8.47,22.54v38.25Zm65,1A34.13,34.13,0,0,1,790,1382a31.12,31.12,0,0,1-12-12,40.1,40.1,0,0,1,0-36.37,31,31,0,0,1,12-12,34,34,0,0,1,17.07-4.3,28.68,28.68,0,0,1,14.82,3.74,24.51,24.51,0,0,1,9.84,11.33q3.49,7.61,3.49,19.44t-3.36,19.43a23.57,23.57,0,0,1-9.65,11.4A29.53,29.53,0,0,1,807,1386.26Zm3.24-15.94a17.47,17.47,0,0,0,8.72-2.18,15.78,15.78,0,0,0,6.16-6.42,20.47,20.47,0,0,0,2.31-10,20.05,20.05,0,0,0-2.31-10,16.07,16.07,0,0,0-6.16-6.29,17.47,17.47,0,0,0-8.72-2.18,17.23,17.23,0,0,0-8.6,2.18,16.07,16.07,0,0,0-6.16,6.29,20.05,20.05,0,0,0-2.31,10,20.47,20.47,0,0,0,2.31,10,15.78,15.78,0,0,0,6.16,6.42A17.23,17.23,0,0,0,810.27,1370.32Zm17.69,15v-13.71l.37-19.93-1.24-19.8v-39h19.43v92.43Zm69.75,1a42.74,42.74,0,0,1-20.05-4.48,32.65,32.65,0,0,1-18.06-30,34.92,34.92,0,0,1,4.54-17.82,32,32,0,0,1,12.71-12.27,38,38,0,0,1,18.37-4.42,36.92,36.92,0,0,1,17.75,4.24,31.72,31.72,0,0,1,12.52,12q4.6,7.72,4.61,18.56c0,.74,0,1.6-.12,2.55s-.17,1.85-.25,2.68H875.29V1345.9h44.22l-7.6,3.37a17.7,17.7,0,0,0-2-9.1,15.45,15.45,0,0,0-5.85-6,17,17,0,0,0-8.72-2.18,17.33,17.33,0,0,0-8.78,2.18,15.18,15.18,0,0,0-5.92,6.1,19.21,19.21,0,0,0-2.12,9.28v3a18.4,18.4,0,0,0,2.49,9.72,16.39,16.39,0,0,0,6.85,6.29,23.12,23.12,0,0,0,10.47,2.18,24.86,24.86,0,0,0,9.28-1.62,23,23,0,0,0,7.41-4.86l10.34,11.22a30.21,30.21,0,0,1-11.59,8A42.81,42.81,0,0,1,897.71,1386.26Zm131.17-69a30.4,30.4,0,0,1,14.14,3.18,22.53,22.53,0,0,1,9.66,9.71q3.48,6.54,3.49,16.76v38.37h-19.44v-35.38q0-8.1-3.3-12t-9.28-3.86a15.18,15.18,0,0,0-7.72,1.93,12.68,12.68,0,0,0-5.17,5.73,23.08,23.08,0,0,0-1.81,9.9v33.64H990v-35.38q0-8.1-3.3-12t-9.53-3.86a14.94,14.94,0,0,0-7.6,1.93,13,13,0,0,0-5.23,5.73,22.43,22.43,0,0,0-1.87,9.9v33.64H943.06v-67h18.56v18.19l-3.49-5.24a23.22,23.22,0,0,1,9.84-10.4,29.91,29.91,0,0,1,14.58-3.55,28.45,28.45,0,0,1,16.19,4.67q7,4.68,9.22,14.27l-6.85-1.87a27.42,27.42,0,0,1,10.71-12.4A31.16,31.16,0,0,1,1028.88,1317.25Zm54.57-8.34a12.49,12.49,0,0,1-8.85-3.12,10.56,10.56,0,0,1,0-15.45,12.53,12.53,0,0,1,8.85-3.11,13.06,13.06,0,0,1,8.78,2.93,9.45,9.45,0,0,1,3.42,7.53,10.6,10.6,0,0,1-3.36,8A12.34,12.34,0,0,1,1083.45,1308.91Zm-9.72,76.36v-67h19.43v67Zm58.17,1a30.6,30.6,0,0,1-13.33-2.68,20.84,20.84,0,0,1-8.65-7.28,18.28,18.28,0,0,1-3.06-10.34,18.81,18.81,0,0,1,2.93-10.4q2.93-4.55,9.28-7t16.69-2.49h17.69v11.21h-15.69q-6.85,0-9.41,2.24a7.16,7.16,0,0,0-2.55,5.61,7,7,0,0,0,2.93,5.91,12.89,12.89,0,0,0,7.91,2.18,17.54,17.54,0,0,0,8.9-2.24,12.23,12.23,0,0,0,5.55-6.85l3,9.09a17.68,17.68,0,0,1-7.73,9.66Q1140.75,1386.26,1131.9,1386.26Zm20.43-1v-13.08l-1.24-2.87V1345.9q0-6.23-3.8-9.71t-11.65-3.49a33.9,33.9,0,0,0-10.53,1.68,29.5,29.5,0,0,0-8.9,4.55l-6.85-13.58a39.35,39.35,0,0,1,13.2-6,60.8,60.8,0,0,1,15.7-2.06q15.32,0,23.79,7.23t8.47,22.54v38.25Z"/></g></g></svg>